<?xml version="1.0" encoding="UTF-8"?>
<!DOCTYPE svg PUBLIC "-//W3C//DTD SVG 1.1//EN" "http://www.w3.org/Graphics/SVG/1.1/DTD/svg11.dtd">
<svg xmlns="http://www.w3.org/2000/svg" version="1.1" width="440px" height="276px" style="shape-rendering:geometricPrecision; text-rendering:geometricPrecision; image-rendering:optimizeQuality; fill-rule:evenodd; clip-rule:evenodd" xmlns:xlink="http://www.w3.org/1999/xlink">
<g><path style="opacity:1" fill="#33819a" d="M 138.5,47.5 C 137.833,47.5 137.5,47.1667 137.5,46.5C 137.5,44.8333 137.5,43.1667 137.5,41.5C 139.428,36.9543 141.928,36.621 145,40.5C 145.251,42.433 145.751,44.2663 146.5,46C 145.13,47.9241 143.296,49.0907 141,49.5C 139.624,49.3158 138.791,48.6491 138.5,47.5 Z"/></g>
<g><path style="opacity:0.037" fill="#000010" d="M 130.5,42.5 C 130.5,42.1667 130.5,41.8333 130.5,41.5C 134.363,42.2573 135.196,44.2573 133,47.5C 132.015,45.8251 131.181,44.1585 130.5,42.5 Z"/></g>
<g><path style="opacity:1" fill="#31b2e3" d="M 138.5,47.5 C 138.338,45.4727 138.505,43.4727 139,41.5C 140.356,40.6198 141.856,40.2865 143.5,40.5C 143.5,42.8333 143.5,45.1667 143.5,47.5C 141.833,47.5 140.167,47.5 138.5,47.5 Z"/></g>
<g><path style="opacity:0.222" fill="#0c1f24" d="M 107.5,42.5 C 107.5,43.8333 107.5,45.1667 107.5,46.5C 106.842,47.3984 106.176,48.3984 105.5,49.5C 104.905,46.9339 105.572,44.6006 107.5,42.5 Z"/></g>
<g><path style="opacity:0.949" fill="#369cbe" d="M 117.5,47.5 C 115.016,51.6088 111.85,52.2755 108,49.5C 107.517,48.552 107.351,47.552 107.5,46.5C 107.5,45.1667 107.5,43.8333 107.5,42.5C 108.462,38.8539 110.795,37.6872 114.5,39C 115.996,41.7142 116.996,44.5475 117.5,47.5 Z"/></g>
<g><path style="opacity:0.02" fill="#081118" d="M 122.5,41.5 C 122.5,43.1667 122.5,44.8333 122.5,46.5C 121.883,46.3893 121.383,46.056 121,45.5C 120.184,46.8228 119.017,47.4894 117.5,47.5C 117.343,46.1266 117.51,44.7932 118,43.5C 118.333,44.1667 118.667,44.8333 119,45.5C 120.55,44.4092 121.717,43.0758 122.5,41.5 Z"/></g>
<g><path style="opacity:0.216" fill="#0d1f2d" d="M 137.5,41.5 C 137.5,43.1667 137.5,44.8333 137.5,46.5C 134.952,44.9622 134.952,43.2956 137.5,41.5 Z"/></g>
<g><path style="opacity:0.012" fill="#01030f" d="M 100.5,45.5 C 100.5,45.1667 100.5,44.8333 100.5,44.5C 103.076,44.7218 103.91,46.0551 103,48.5C 102.617,47.944 102.117,47.6107 101.5,47.5C 101.672,46.5084 101.338,45.8417 100.5,45.5 Z"/></g>
<g><path style="opacity:1" fill="#359fc2" d="M 130.5,41.5 C 130.5,41.8333 130.5,42.1667 130.5,42.5C 131.169,48.0001 128.835,50.1667 123.5,49C 122.748,48.3292 122.414,47.4959 122.5,46.5C 122.5,44.8333 122.5,43.1667 122.5,41.5C 122.559,39.2776 123.725,38.2776 126,38.5C 128.183,38.5221 129.683,39.5221 130.5,41.5 Z"/></g>
<g><path style="opacity:0.506" fill="#1c2842" d="M 403.5,48.5 C 401.991,47.1405 401.324,47.6405 401.5,50C 402.256,53.1248 402.589,56.2914 402.5,59.5C 401.368,50.392 399.368,41.392 396.5,32.5C 397.498,29.9722 398.331,29.9722 399,32.5C 400.815,37.7627 402.315,43.096 403.5,48.5 Z"/></g>
<g><path style="opacity:0.467" fill="#142f41" d="M 91.5,46.5 C 91.5,48.5 91.5,50.5 91.5,52.5C 90.8333,52.5 90.5,52.8333 90.5,53.5C 89.1326,50.9882 89.466,48.6548 91.5,46.5 Z"/></g>
<g><path style="opacity:1" fill="#3491ac" d="M 100.5,44.5 C 100.5,44.8333 100.5,45.1667 100.5,45.5C 101.338,45.8417 101.672,46.5084 101.5,47.5C 101.408,56.6328 97.7412,58.6328 90.5,53.5C 91.1667,53.5 91.5,53.1667 91.5,52.5C 91.5,50.5 91.5,48.5 91.5,46.5C 93.4523,40.8464 96.4523,40.1798 100.5,44.5 Z"/></g>
<g><path style="opacity:1" fill="#2db4e2" d="M 100.5,45.5 C 100.976,51.4204 98.3095,53.9204 92.5,53C 92.3227,50.6307 92.656,48.1307 93.5,45.5C 95.8587,44.2857 98.192,44.2857 100.5,45.5 Z"/></g>
<g><path style="opacity:0.231" fill="#092c37" d="M 76.5,53.5 C 76.5,54.8333 76.5,56.1667 76.5,57.5C 75.6236,57.6309 74.9569,57.2975 74.5,56.5C 74.9424,55.2613 75.6091,54.2613 76.5,53.5 Z"/></g>
<g><path style="opacity:0.788" fill="#1d465a" d="M 86.5,51.5 C 87.7251,52.1522 88.3917,53.3189 88.5,55C 88.6932,57.0081 88.0265,58.5081 86.5,59.5C 86.5,56.8333 86.5,54.1667 86.5,51.5 Z"/></g>
<g><path style="opacity:1" fill="#33a8d1" d="M 86.5,51.5 C 86.5,54.1667 86.5,56.8333 86.5,59.5C 86.5858,60.4959 86.2524,61.3292 85.5,62C 82.8375,63.5923 80.1708,63.4257 77.5,61.5C 77.5,61.1667 77.5,60.8333 77.5,60.5C 77.5,59.8333 77.1667,59.5 76.5,59.5C 76.5,58.8333 76.5,58.1667 76.5,57.5C 76.5,56.1667 76.5,54.8333 76.5,53.5C 77.123,48.7119 79.7897,46.8786 84.5,48C 85.8228,48.8159 86.4894,49.9826 86.5,51.5 Z"/></g>
<g><path style="opacity:1" fill="#c0c1c3" d="M 137.5,53.5 C 144.456,54.9188 146.123,58.7521 142.5,65C 135.562,67.0597 132.729,64.5597 134,57.5C 134.69,55.6498 135.856,54.3164 137.5,53.5 Z"/></g>
<g><path style="opacity:1" fill="#32a1c4" d="M 70.5,57.5 C 72.181,60.582 72.8476,63.9153 72.5,67.5C 70.4034,72.5317 67.07,73.5317 62.5,70.5C 62.5,69.8333 62.5,69.1667 62.5,68.5C 62.1667,67.8333 61.8333,67.1667 61.5,66.5C 60.381,58.9659 63.381,55.9659 70.5,57.5 Z"/></g>
<g><path style="opacity:0.035" fill="#081b23" d="M 70.5,57.5 C 72.0245,58.1738 73.3578,59.1738 74.5,60.5C 75.1835,60.1373 75.8501,59.8039 76.5,59.5C 77.1667,59.5 77.5,59.8333 77.5,60.5C 76.1667,60.8333 76.1667,61.1667 77.5,61.5C 76.791,62.404 75.791,62.7373 74.5,62.5C 74.8799,64.698 74.2132,66.3646 72.5,67.5C 72.8476,63.9153 72.181,60.582 70.5,57.5 Z"/></g>
<g><path style="opacity:1" fill="#c0c0c2" d="M 151.5,54.5 C 157.267,55.5702 158.933,58.9035 156.5,64.5C 151.517,67.831 148.517,66.4977 147.5,60.5C 147.67,57.6736 149.003,55.6736 151.5,54.5 Z"/></g>
<g><path style="opacity:1" fill="#b3b4b5" d="M 164.5,56.5 C 168.781,55.4832 171.114,57.1499 171.5,61.5C 169.921,66.5954 167.087,67.5954 163,64.5C 162.109,61.5024 162.609,58.8357 164.5,56.5 Z"/></g>
<g><path style="opacity:1" fill="#bdbebf" d="M 179.5,58.5 C 185.102,59.871 186.436,63.0377 183.5,68C 178,69.1667 175.833,67 177,61.5C 177.698,60.3094 178.531,59.3094 179.5,58.5 Z"/></g>
<g><path style="opacity:1" fill="#f0f2f1" d="M 367.5,61.5 C 380.365,61.6982 387.032,68.3649 387.5,81.5C 387.146,90.3973 383.146,96.8973 375.5,101C 366.071,102.593 359.904,98.7598 357,89.5C 355.666,81.8001 356.666,74.4668 360,67.5C 362.114,64.8792 364.614,62.8792 367.5,61.5 Z"/></g>
<g><path style="opacity:1" fill="#bfbfbf" d="M 105.5,60.5 C 111.765,60.3634 114.265,63.3634 113,69.5C 109.619,73.4851 106.286,73.4851 103,69.5C 101.927,65.9003 102.76,62.9003 105.5,60.5 Z"/></g>
<g><path style="opacity:1" fill="#c7c7ca" d="M 120.5,56.5 C 129.284,56.9031 131.284,60.7364 126.5,68C 121.608,69.6897 118.608,68.023 117.5,63C 118.03,60.5568 119.03,58.3901 120.5,56.5 Z"/></g>
<g><path style="opacity:0.992" fill="#265c6e" d="M 61.5,66.5 C 61.8333,67.1667 62.1667,67.8333 62.5,68.5C 61.1667,69.1667 61.1667,69.8333 62.5,70.5C 62.7214,71.7348 63.3881,72.7348 64.5,73.5C 64.3764,74.1067 64.0431,74.44 63.5,74.5C 62.1751,73.0474 61.3418,73.3808 61,75.5C 60.5045,73.5273 60.3379,71.5273 60.5,69.5C 57.4299,69.3677 54.4299,69.701 51.5,70.5C 53.4283,68.8875 55.7617,67.8875 58.5,67.5C 59.086,67.7093 59.586,68.0426 60,68.5C 60.2784,67.5842 60.7784,66.9175 61.5,66.5 Z"/></g>
<g><path style="opacity:1" fill="#b0b1b3" d="M 192.5,65.5 C 198.367,65.2056 200.033,67.8723 197.5,73.5C 190.4,74.5418 188.733,71.8751 192.5,65.5 Z"/></g>
<g><path style="opacity:1" fill="#2d4e81" d="M 403.5,48.5 C 407.83,69.4187 409.83,90.4187 409.5,111.5C 408.95,113.657 408.283,115.657 407.5,117.5C 407.77,103.137 407.27,88.804 406,74.5C 405.667,74.1667 405.333,73.8333 405,73.5C 404.691,76.9424 403.524,79.9424 401.5,82.5C 401.889,74.8363 402.222,67.1696 402.5,59.5C 402.589,56.2914 402.256,53.1248 401.5,50C 401.324,47.6405 401.991,47.1405 403.5,48.5 Z"/></g>
<g><path style="opacity:1" fill="#203a67" d="M 119.5,86.5 C 119.816,83.0217 119.316,79.6883 118,76.5C 115.502,75.2215 113.002,75.2215 110.5,76.5C 110.685,74.1104 112.018,73.1104 114.5,73.5C 121.483,75.7979 123.149,80.1312 119.5,86.5 Z"/></g>
<g><path style="opacity:1" fill="#244a86" d="M 126.5,69.5 C 130.981,69.6417 133.648,71.9751 134.5,76.5C 132.559,83.1199 129.059,84.1199 124,79.5C 124.046,77.6874 123.88,76.0207 123.5,74.5C 124.763,72.9713 125.763,71.3046 126.5,69.5 Z"/></g>
<g><path style="opacity:1" fill="#1c3762" d="M 147.5,79.5 C 145.262,83.1955 142.762,83.1955 140,79.5C 137.665,74.5034 138.998,70.8367 144,68.5C 149.313,71.0767 150.48,74.7434 147.5,79.5 Z"/></g>
<g><path style="opacity:1" fill="#2258a6" d="M 147.5,79.5 C 140.464,80.3974 138.797,77.8974 142.5,72C 143.899,71.4054 145.232,71.5721 146.5,72.5C 147.474,74.7427 147.808,77.076 147.5,79.5 Z"/></g>
<g><path style="opacity:1" fill="#214883" d="M 158.5,69.5 C 164.487,71.6133 165.987,75.6133 163,81.5C 160.667,84.1667 158.333,84.1667 156,81.5C 152.868,76.7386 153.702,72.7386 158.5,69.5 Z"/></g>
<g><path style="opacity:1" fill="#1e3862" d="M 172.5,73.5 C 178.267,74.6226 179.934,77.9559 177.5,83.5C 173.238,86.0389 170.572,84.7055 169.5,79.5C 169.984,77.1992 170.984,75.1992 172.5,73.5 Z"/></g>
<g><path style="opacity:1" fill="#c3c3c4" d="M 90.5,80.5 C 90.5,79.8333 90.1667,79.5 89.5,79.5C 89.5,78.8333 89.1667,78.5 88.5,78.5C 88.5,77.8333 88.1667,77.5 87.5,77.5C 87.5,76.8333 87.1667,76.5 86.5,76.5C 85.2302,67.2581 88.8969,64.0914 97.5,67C 101.301,70.612 101.468,74.4453 98,78.5C 95.7724,80.1134 93.2724,80.78 90.5,80.5 Z"/></g>
<g><path style="opacity:1" fill="#2458a2" d="M 171.5,76.5 C 175.908,76.062 177.575,78.062 176.5,82.5C 174.833,82.5 173.167,82.5 171.5,82.5C 171.5,80.5 171.5,78.5 171.5,76.5 Z"/></g>
<g><path style="opacity:1" fill="#c9cacc" d="M 86.5,76.5 C 87.1667,76.5 87.5,76.8333 87.5,77.5C 87.5,77.8333 87.5,78.1667 87.5,78.5C 88.3686,80.717 88.702,83.0504 88.5,85.5C 87.7092,90.6039 84.7092,92.6039 79.5,91.5C 79.5,90.8333 79.1667,90.5 78.5,90.5C 77.5,89.8333 76.5,89.1667 75.5,88.5C 73.0253,78.6453 76.692,74.6453 86.5,76.5 Z"/></g>
<g><path style="opacity:1" fill="#2456a5" d="M 119.5,86.5 C 113.399,87.1321 110.066,84.4654 109.5,78.5C 109.328,77.5084 109.662,76.8417 110.5,76.5C 113.002,75.2215 115.502,75.2215 118,76.5C 119.316,79.6883 119.816,83.0217 119.5,86.5 Z"/></g>
<g><path style="opacity:1" fill="#30a9d3" d="M 63.5,74.5 C 65.675,83.8275 62.0083,88.1608 52.5,87.5C 52.5,86.8333 52.1667,86.5 51.5,86.5C 51.5,85.8333 51.1667,85.5 50.5,85.5C 50.5,84.1667 49.8333,83.5 48.5,83.5C 48.7912,80.963 48.9578,78.2963 49,75.5C 49.3736,73.5087 50.207,71.842 51.5,70.5C 54.4299,69.701 57.4299,69.3677 60.5,69.5C 60.3379,71.5273 60.5045,73.5273 61,75.5C 61.3418,73.3808 62.1751,73.0474 63.5,74.5 Z"/></g>
<g><path style="opacity:0.278" fill="#25282a" d="M 87.5,78.5 C 87.8333,78.5 88.1667,78.5 88.5,78.5C 89.1667,78.5 89.5,78.8333 89.5,79.5C 90.1667,79.5 90.5,79.8333 90.5,80.5C 89.9759,82.3057 89.3092,83.9724 88.5,85.5C 88.702,83.0504 88.3686,80.717 87.5,78.5 Z"/></g>
<g><path style="opacity:1" fill="#19365e" d="M 106.5,95.5 C 109.741,86.585 106.907,83.2517 98,85.5C 97.2446,89.2554 97.4113,92.9221 98.5,96.5C 98.3285,97.8793 98.1618,99.5459 98,101.5C 97.2912,105.041 95.1245,107.041 91.5,107.5C 90.1451,106.812 89.1451,105.812 88.5,104.5C 87.3622,101.696 87.1955,98.6965 88,95.5C 90.1675,93.5356 92.5008,93.2022 95,94.5C 93.9807,88.1967 96.314,83.8634 102,81.5C 108.172,83.728 110.172,88.0614 108,94.5C 107.617,95.056 107.117,95.3893 106.5,95.5 Z"/></g>
<g><path style="opacity:1" fill="#1c345e" d="M 190.5,88.5 C 191.131,84.3086 189.465,82.4752 185.5,83C 183.339,87.4481 184.672,89.6148 189.5,89.5C 187.823,92.0702 185.99,92.0702 184,89.5C 181.016,83.9289 182.516,80.7622 188.5,80C 191.48,82.4142 192.147,85.2475 190.5,88.5 Z"/></g>
<g><path style="opacity:1" fill="#224475" d="M 109.5,78.5 C 110.066,84.4654 113.399,87.1321 119.5,86.5C 115.332,90.6296 111.832,89.963 109,84.5C 108.211,82.2884 108.378,80.2884 109.5,78.5 Z"/></g>
<g><path style="opacity:1" fill="#255699" d="M 190.5,88.5 C 190.5,89.1667 190.167,89.5 189.5,89.5C 184.672,89.6148 183.339,87.4481 185.5,83C 189.465,82.4752 191.131,84.3086 190.5,88.5 Z"/></g>
<g><path style="opacity:1" fill="#1d3662" d="M 162.5,97.5 C 163.844,91.3376 161.678,89.3376 156,91.5C 155.506,93.1341 155.34,94.8008 155.5,96.5C 153.727,95.6857 153.227,94.3524 154,92.5C 157.045,86.5979 160.378,86.2646 164,91.5C 164.941,93.9894 164.441,95.9894 162.5,97.5 Z"/></g>
<g><path style="opacity:1" fill="#cacacc" d="M 75.5,88.5 C 75.427,90.0269 76.0937,91.0269 77.5,91.5C 77.3284,92.4916 77.6618,93.1583 78.5,93.5C 80.8883,99.3901 79.2216,103.723 73.5,106.5C 71.1667,106.5 68.8333,106.5 66.5,106.5C 61.5962,102.825 60.4295,98.1581 63,92.5C 64.3189,90.5125 66.1523,89.3459 68.5,89C 71.0248,88.8563 73.3581,88.6896 75.5,88.5 Z"/></g>
<g><path style="opacity:0.008" fill="#181819" d="M 78.5,90.5 C 79.1667,90.5 79.5,90.8333 79.5,91.5C 79.1667,92.1667 78.8333,92.8333 78.5,93.5C 77.6618,93.1583 77.3284,92.4916 77.5,91.5C 78.1667,91.5 78.5,91.1667 78.5,90.5 Z"/></g>
<g><path style="opacity:1" fill="#23559d" d="M 106.5,95.5 C 104.119,97.6395 101.452,97.9729 98.5,96.5C 97.4113,92.9221 97.2446,89.2554 98,85.5C 106.907,83.2517 109.741,86.585 106.5,95.5 Z"/></g>
<g><path style="opacity:0.694" fill="#19335c" d="M 196.5,87.5 C 202.578,86.3172 205.411,88.6505 205,94.5C 202.805,98.8721 199.805,99.5388 196,96.5C 194.029,93.3839 194.195,90.3839 196.5,87.5 Z"/></g>
<g><path style="opacity:1" fill="#2358a5" d="M 198.5,88.5 C 199.822,88.33 200.989,88.6634 202,89.5C 202.497,91.8098 202.663,94.1432 202.5,96.5C 200.533,96.7394 198.699,96.4061 197,95.5C 196.185,92.8018 196.685,90.4685 198.5,88.5 Z"/></g>
<g><path style="opacity:1" fill="#255193" d="M 124.5,99.5 C 124.489,101.017 123.823,102.184 122.5,103C 120.567,103.251 118.734,103.751 117,104.5C 116.005,103.934 115.172,103.267 114.5,102.5C 113.735,99.9039 113.401,97.2372 113.5,94.5C 113.5,93.8333 113.833,93.5 114.5,93.5C 120.641,90.9893 123.974,92.9893 124.5,99.5 Z"/></g>
<g><path style="opacity:1" fill="#21406f" d="M 148.5,96.5 C 148.663,94.1432 148.497,91.8098 148,89.5C 146.301,88.5939 144.467,88.2606 142.5,88.5C 141.833,90.8194 141.666,93.1527 142,95.5C 143.699,96.4061 145.533,96.7394 147.5,96.5C 143.684,98.3506 140.684,97.3506 138.5,93.5C 136.791,98.9436 133.458,100.61 128.5,98.5C 126.615,96.9468 125.615,94.9468 125.5,92.5C 126.509,87.6536 129.509,85.8202 134.5,87C 136.041,88.5793 137.208,90.4127 138,92.5C 139.637,86.7664 143.137,84.933 148.5,87C 151.14,90.2803 151.14,93.447 148.5,96.5 Z"/></g>
<g><path style="opacity:1" fill="#2358a5" d="M 129.5,88.5 C 131.262,88.3573 132.929,88.6906 134.5,89.5C 135.205,92.089 135.205,94.7557 134.5,97.5C 130.075,98.2434 127.408,96.4101 126.5,92C 127.544,90.8261 128.544,89.6594 129.5,88.5 Z"/></g>
<g><path style="opacity:1" fill="#2457a3" d="M 148.5,96.5 C 148.167,96.5 147.833,96.5 147.5,96.5C 145.533,96.7394 143.699,96.4061 142,95.5C 141.666,93.1527 141.833,90.8194 142.5,88.5C 144.467,88.2606 146.301,88.5939 148,89.5C 148.497,91.8098 148.663,94.1432 148.5,96.5 Z"/></g>
<g><path style="opacity:1" fill="#2db3e2" d="M 51.5,87.5 C 51.8333,87.5 52.1667,87.5 52.5,87.5C 52.5,87.8333 52.5,88.1667 52.5,88.5C 52.8183,92.4397 52.8183,96.2731 52.5,100C 46.3062,106.744 42.3062,105.577 40.5,96.5C 39.4882,87.5231 43.1549,84.5231 51.5,87.5 Z"/></g>
<g><path style="opacity:0.059" fill="#091631" d="M 125.5,92.5 C 125.615,94.9468 126.615,96.9468 128.5,98.5C 127.504,98.5858 126.671,98.2524 126,97.5C 125.722,98.4158 125.222,99.0825 124.5,99.5C 123.974,92.9893 120.641,90.9893 114.5,93.5C 117.537,89.5431 120.704,89.5431 124,93.5C 124.383,92.944 124.883,92.6107 125.5,92.5 Z"/></g>
<g><path style="opacity:1" fill="#275599" d="M 162.5,97.5 C 161.726,98.1471 160.726,98.4805 159.5,98.5C 157.645,98.6598 156.312,97.9931 155.5,96.5C 155.34,94.8008 155.506,93.1341 156,91.5C 161.678,89.3376 163.844,91.3376 162.5,97.5 Z"/></g>
<g><path style="opacity:1" fill="#2457a6" d="M 88.5,104.5 C 88.3367,102.143 88.5034,99.8098 89,97.5C 90.7261,96.4238 92.5594,96.2571 94.5,97C 94.0426,97.414 93.7093,97.914 93.5,98.5C 95.0863,100.173 95.7529,102.173 95.5,104.5C 93.1667,104.5 90.8333,104.5 88.5,104.5 Z"/></g>
<g><path style="opacity:1" fill="#1e3968" d="M 173.5,91.5 C 179.076,91.9736 181.243,94.9736 180,100.5C 175.631,104.986 172.131,104.152 169.5,98C 170.25,95.4288 171.583,93.2622 173.5,91.5 Z"/></g>
<g><path style="opacity:1" fill="#2259a4" d="M 173.5,93.5 C 177.677,92.8416 179.177,94.5082 178,98.5C 176.688,100.658 175.022,100.991 173,99.5C 172.322,97.4024 172.489,95.4024 173.5,93.5 Z"/></g>
<g><path style="opacity:1" fill="#22457a" d="M 186.5,98.5 C 193.841,99.3093 195.174,102.476 190.5,108C 183.075,107.484 181.742,104.318 186.5,98.5 Z"/></g>
<g><path style="opacity:1" fill="#348ca9" d="M 48.5,83.5 C 49.8333,83.5 50.5,84.1667 50.5,85.5C 51.1667,85.5 51.5,85.8333 51.5,86.5C 51.5,86.8333 51.5,87.1667 51.5,87.5C 43.1549,84.5231 39.4882,87.5231 40.5,96.5C 42.3062,105.577 46.3062,106.744 52.5,100C 52.8183,96.2731 52.8183,92.4397 52.5,88.5C 53.9649,89.4057 54.9649,90.739 55.5,92.5C 55.8168,99.539 52.8168,104.539 46.5,107.5C 38.5807,103.868 36.0807,97.8677 39,89.5C 41.0839,85.8702 44.2506,83.8702 48.5,83.5 Z"/></g>
<g><path style="opacity:0.2" fill="#05112a" d="M 113.5,94.5 C 113.401,97.2372 113.735,99.9039 114.5,102.5C 113.833,104.167 113.167,105.833 112.5,107.5C 112.893,104.487 112.226,101.82 110.5,99.5C 112.379,99.6068 112.712,99.1068 111.5,98C 112.085,96.6976 112.751,95.531 113.5,94.5 Z"/></g>
<g><path style="opacity:0.774" fill="#192a51" d="M 359.5,105.5 C 352.798,105.336 346.131,105.669 339.5,106.5C 346.015,103.019 352.682,102.685 359.5,105.5 Z"/></g>
<g><path style="opacity:0.447" fill="#373739" d="M 66.5,107.5 C 66.5,107.167 66.5,106.833 66.5,106.5C 68.8333,106.5 71.1667,106.5 73.5,106.5C 71.9724,107.309 70.3057,107.976 68.5,108.5C 68.1583,107.662 67.4916,107.328 66.5,107.5 Z"/></g>
<g><path style="opacity:0.024" fill="#092129" d="M 42.5,107.5 C 45.179,107.525 46.5123,108.858 46.5,111.5C 44.8333,110.5 43.5,109.167 42.5,107.5 Z"/></g>
<g><path style="opacity:0.027" fill="#242425" d="M 66.5,107.5 C 66.8417,108.338 67.5084,108.672 68.5,108.5C 68.5,109.167 68.5,109.833 68.5,110.5C 67.2905,110.068 66.2905,109.401 65.5,108.5C 65.5,107.833 65.8333,107.5 66.5,107.5 Z"/></g>
<g><path style="opacity:1" fill="#25518f" d="M 110.5,99.5 C 112.226,101.82 112.893,104.487 112.5,107.5C 112.167,108.5 111.5,109.167 110.5,109.5C 104.671,110 102.337,107.334 103.5,101.5C 105.382,98.782 107.715,98.1153 110.5,99.5 Z"/></g>
<g><path style="opacity:1" fill="#2e5ca9" d="M 407.5,117.5 C 407.5,118.167 407.5,118.833 407.5,119.5C 403.675,128.3 401.175,137.633 400,147.5C 396.743,152.003 395.243,157.003 395.5,162.5C 394.596,161.791 394.263,160.791 394.5,159.5C 393.448,159.351 392.448,159.517 391.5,160C 393.56,161.493 393.893,163.326 392.5,165.5C 391.833,164.833 391.167,164.167 390.5,163.5C 390.167,164 389.833,164.5 389.5,165C 391.322,169.67 389.655,172.003 384.5,172C 387.092,174.011 386.925,175.844 384,177.5C 383.055,177.095 382.388,176.428 382,175.5C 382.796,178.03 383.129,180.696 383,183.5C 382.612,184.428 381.945,185.095 381,185.5C 377.453,184.207 376.953,184.874 379.5,187.5C 379.028,191.203 378.028,193.203 376.5,193.5C 373.724,193.089 373.057,193.922 374.5,196C 373.99,197.826 373.156,197.993 372,196.5C 371.383,197.449 371.549,198.282 372.5,199C 371.033,200.098 370.199,201.598 370,203.5C 366.198,200.227 365.531,196.227 368,191.5C 368.667,190.167 369.333,190.167 370,191.5C 370.721,184.177 371.221,176.844 371.5,169.5C 371.5,166.167 371.5,162.833 371.5,159.5C 372.641,156.36 372.808,153.027 372,149.5C 370.913,146.309 370.08,142.975 369.5,139.5C 368.591,137.625 367.257,136.292 365.5,135.5C 361.044,125.712 353.71,119.045 343.5,115.5C 339.316,114.834 334.982,114.167 330.5,113.5C 331.524,112.148 332.524,110.815 333.5,109.5C 335.03,107.654 337.03,106.654 339.5,106.5C 346.131,105.669 352.798,105.336 359.5,105.5C 359.414,106.496 359.748,107.329 360.5,108C 364.175,108.557 367.508,109.89 370.5,112C 376.196,112.83 381.863,112.663 387.5,111.5C 389.079,110.333 390.412,109 391.5,107.5C 397.862,100.433 401.196,92.0996 401.5,82.5C 403.524,79.9424 404.691,76.9424 405,73.5C 405.333,73.8333 405.667,74.1667 406,74.5C 407.27,88.804 407.77,103.137 407.5,117.5 Z"/></g>
<g><path style="opacity:1" fill="#cbcbcd" d="M 65.5,108.5 C 66.2905,109.401 67.2905,110.068 68.5,110.5C 72.7893,116.073 72.1227,121.073 66.5,125.5C 64.1667,125.5 61.8333,125.5 59.5,125.5C 54.2035,123.234 52.3702,119.234 54,113.5C 56.4255,108.366 60.2589,106.7 65.5,108.5 Z"/></g>
<g><path style="opacity:1" fill="#1f3b68" d="M 85.5,127.5 C 83.8333,127.5 82.1667,127.5 80.5,127.5C 79.3734,126.878 78.3734,126.045 77.5,125C 78.7111,123.887 78.7111,122.72 77.5,121.5C 78.8333,119.833 80.1667,118.167 81.5,116.5C 78.4852,111.306 79.9852,107.973 86,106.5C 89.1282,106.961 90.9615,108.795 91.5,112C 90.5979,114.899 88.9312,117.232 86.5,119C 89.258,122.218 88.9247,125.051 85.5,127.5 Z"/></g>
<g><path style="opacity:1" fill="#284678" d="M 359.5,105.5 C 366.177,107.667 373.01,109.334 380,110.5C 384.003,110.041 387.836,109.041 391.5,107.5C 390.412,109 389.079,110.333 387.5,111.5C 381.863,112.663 376.196,112.83 370.5,112C 367.508,109.89 364.175,108.557 360.5,108C 359.748,107.329 359.414,106.496 359.5,105.5 Z"/></g>
<g><path style="opacity:1" fill="#2357a9" d="M 82.5,108.5 C 87.1679,107.839 89.1679,109.839 88.5,114.5C 86.1667,114.5 83.8333,114.5 81.5,114.5C 81.8333,112.5 82.1667,110.5 82.5,108.5 Z"/></g>
<g><path style="opacity:1" fill="#27569b" d="M 104.5,116.5 C 104.167,117.5 103.5,118.167 102.5,118.5C 98.0243,118.178 96.5243,115.844 98,111.5C 99.1332,109.789 100.633,109.289 102.5,110C 104.229,111.789 104.896,113.956 104.5,116.5 Z"/></g>
<g><path style="opacity:0.973" fill="#24365b" d="M 333.5,109.5 C 332.524,110.815 331.524,112.148 330.5,113.5C 334.982,114.167 339.316,114.834 343.5,115.5C 337.773,115.483 332.107,115.649 326.5,116C 328.071,112.926 330.404,110.76 333.5,109.5 Z"/></g>
<g><path style="opacity:1" fill="#30a6ce" d="M 42.5,107.5 C 43.5,109.167 44.8333,110.5 46.5,111.5C 47.9,116.101 47.7334,120.768 46,125.5C 44.6487,127.019 43.1487,128.352 41.5,129.5C 32.1964,127.58 29.0298,121.913 32,112.5C 34.2398,107.624 37.7398,105.958 42.5,107.5 Z"/></g>
<g><path style="opacity:1" fill="#2159a6" d="M 80.5,120.5 C 84.9028,119.893 86.2361,121.56 84.5,125.5C 83.3112,126.429 81.9778,126.762 80.5,126.5C 80.5,124.5 80.5,122.5 80.5,120.5 Z"/></g>
<g><path style="opacity:0.957" fill="#27528e" d="M 100.5,120.5 C 102.564,122.861 102.23,125.194 99.5,127.5C 95.0236,127.2 93.6903,125.033 95.5,121C 97.1341,120.506 98.8008,120.34 100.5,120.5 Z"/></g>
<g><path style="opacity:0.047" fill="#091429" d="M 103.5,101.5 C 102.337,107.334 104.671,110 110.5,109.5C 109.158,110.793 107.491,111.626 105.5,112C 105.833,112.333 106.167,112.667 106.5,113C 105.915,114.302 105.249,115.469 104.5,116.5C 104.896,113.956 104.229,111.789 102.5,110C 100.633,109.289 99.1332,109.789 98,111.5C 96.5243,115.844 98.0243,118.178 102.5,118.5C 101.833,119.167 101.167,119.833 100.5,120.5C 98.8008,120.34 97.1341,120.506 95.5,121C 93.6903,125.033 95.0236,127.2 99.5,127.5C 98.3267,129.341 98.3267,131.174 99.5,133C 99.1015,134.981 98.1015,136.481 96.5,137.5C 97.3897,135.218 97.5564,132.885 97,130.5C 95.6439,129.62 94.1439,129.286 92.5,129.5C 94.5262,128.005 94.8595,126.005 93.5,123.5C 93.5984,121.063 94.5984,119.063 96.5,117.5C 94.9632,112.08 96.9632,108.58 102.5,107C 101.02,104.765 101.353,102.932 103.5,101.5 Z"/></g>
<g><path style="opacity:0.016" fill="#1a1b1b" d="M 59.5,125.5 C 61.8333,125.5 64.1667,125.5 66.5,125.5C 66.5858,126.496 66.2524,127.329 65.5,128C 66.3805,128.708 67.0472,129.542 67.5,130.5C 65.5648,129.85 63.5648,129.517 61.5,129.5C 61.6107,128.883 61.944,128.383 62.5,128C 61.4293,127.148 60.4293,126.315 59.5,125.5 Z"/></g>
<g><path style="opacity:0.067" fill="#0b1627" d="M 80.5,127.5 C 82.1667,127.5 83.8333,127.5 85.5,127.5C 84.9423,128.79 83.9423,129.623 82.5,130C 85.5005,131.525 86.1671,133.692 84.5,136.5C 84.4236,131.59 82.0902,130.257 77.5,132.5C 78.1223,130.665 79.4556,129.498 81.5,129C 80.944,128.617 80.6107,128.117 80.5,127.5 Z"/></g>
<g><path style="opacity:1" fill="#234a85" d="M 92.5,129.5 C 94.1439,129.286 95.6439,129.62 97,130.5C 97.5564,132.885 97.3897,135.218 96.5,137.5C 95.5,137.5 94.5,137.5 93.5,137.5C 89.9301,135.224 89.5967,132.558 92.5,129.5 Z"/></g>
<g><path style="opacity:1" fill="#2c477d" d="M 407.5,119.5 C 406.642,133.849 402.642,148.183 395.5,162.5C 395.243,157.003 396.743,152.003 400,147.5C 401.175,137.633 403.675,128.3 407.5,119.5 Z"/></g>
<g><path style="opacity:1" fill="#27508e" d="M 84.5,136.5 C 84.6716,137.492 84.3382,138.158 83.5,138.5C 81.8333,138.5 80.1667,138.5 78.5,138.5C 75.1445,136.815 74.8112,134.815 77.5,132.5C 82.0902,130.257 84.4236,131.59 84.5,136.5 Z"/></g>
<g><path style="opacity:1" fill="#132a47" d="M 93.5,137.5 C 94.5,137.5 95.5,137.5 96.5,137.5C 96.5448,139.562 97.2115,141.729 98.5,144C 98.472,145.07 98.1386,145.903 97.5,146.5C 97.9854,141.841 96.152,140.508 92,142.5C 91.51,143.793 91.3433,145.127 91.5,146.5C 90.6091,145.739 89.9424,144.739 89.5,143.5C 91.2776,141.736 92.6109,139.736 93.5,137.5 Z"/></g>
<g><path style="opacity:0.999" fill="#29497e" d="M 365.5,135.5 C 367.257,136.292 368.591,137.625 369.5,139.5C 370.08,142.975 370.913,146.309 372,149.5C 372.808,153.027 372.641,156.36 371.5,159.5C 370.393,151.302 368.393,143.302 365.5,135.5 Z"/></g>
<g><path style="opacity:1" fill="#cdcdd0" d="M 61.5,129.5 C 63.5648,129.517 65.5648,129.85 67.5,130.5C 71.9738,134.48 72.6404,139.146 69.5,144.5C 68.0986,145.521 66.7653,146.521 65.5,147.5C 64.8333,147.5 64.1667,147.5 63.5,147.5C 56.9919,147.991 53.6585,144.991 53.5,138.5C 53.3692,132.966 56.0359,129.966 61.5,129.5 Z"/></g>
<g><path style="opacity:1" fill="#1b355d" d="M 78.5,138.5 C 80.1667,138.5 81.8333,138.5 83.5,138.5C 82.1667,139.833 82.1667,141.167 83.5,142.5C 85.7451,144.417 86.0785,146.75 84.5,149.5C 82.2629,151.913 79.9295,151.913 77.5,149.5C 76.9598,148.252 76.2931,147.085 75.5,146C 76.6399,144.027 77.9733,142.193 79.5,140.5C 79.1373,139.817 78.8039,139.15 78.5,138.5 Z"/></g>
<g><path style="opacity:1" fill="#245390" d="M 97.5,146.5 C 97.5,147.167 97.1667,147.5 96.5,147.5C 95.1667,147.5 93.8333,147.5 92.5,147.5C 91.8333,147.5 91.5,147.167 91.5,146.5C 91.3433,145.127 91.51,143.793 92,142.5C 96.152,140.508 97.9854,141.841 97.5,146.5 Z"/></g>
<g><path style="opacity:1" fill="#30a6d0" d="M 38.5,131.5 C 43.3435,130.843 46.5101,132.843 48,137.5C 50.1879,144.785 47.8545,149.785 41,152.5C 34.1455,149.785 31.8121,144.785 34,137.5C 34.8041,134.854 36.3041,132.854 38.5,131.5 Z"/></g>
<g><path style="opacity:1" fill="#2756a1" d="M 83.5,142.5 C 83.0074,144.806 82.6741,147.139 82.5,149.5C 81.5,149.5 80.5,149.5 79.5,149.5C 78.9862,147.488 78.8195,145.488 79,143.5C 80.3561,142.62 81.8561,142.286 83.5,142.5 Z"/></g>
<g><path style="opacity:0.027" fill="#000000" d="M 63.5,147.5 C 64.1667,147.5 64.8333,147.5 65.5,147.5C 67.5,147.5 68.5,148.5 68.5,150.5C 66.8333,150.5 65.1667,150.5 63.5,150.5C 64.8333,149.5 64.8333,148.5 63.5,147.5 Z"/></g>
<g><path style="opacity:1" fill="#163056" d="M 92.5,147.5 C 93.8333,147.5 95.1667,147.5 96.5,147.5C 98.6539,150.763 98.8205,154.096 97,157.5C 94.4717,158.934 92.6383,158.267 91.5,155.5C 90.8761,155.083 90.5427,154.416 90.5,153.5C 91.6511,151.675 92.3178,149.675 92.5,147.5 Z"/></g>
<g><path style="opacity:1" fill="#2857a0" d="M 91.5,155.5 C 91.5,154.5 91.5,153.5 91.5,152.5C 93.1667,152.5 94.8333,152.5 96.5,152.5C 96.5,153.833 96.5,155.167 96.5,156.5C 94.7839,156.371 93.1172,156.038 91.5,155.5 Z"/></g>
<g><path style="opacity:1" fill="#eff0f0" d="M 185.5,192.5 C 170.167,193.833 154.833,193.833 139.5,192.5C 141.482,189.19 143.815,186.19 146.5,183.5C 152.599,183.833 157.932,183.5 162.5,182.5C 159.096,178.035 155.929,173.369 153,168.5C 146.584,176.735 140.418,185.068 134.5,193.5C 129.305,193.821 124.305,193.487 119.5,192.5C 128.24,178.602 137.907,165.435 148.5,153C 154.157,151.282 158.657,152.782 162,157.5C 169.843,169.195 177.677,180.862 185.5,192.5 Z"/></g>
<g><path style="opacity:0.231" fill="#404041" d="M 220.5,153.5 C 212.414,153.199 204.414,153.533 196.5,154.5C 200.107,153.176 204.107,152.509 208.5,152.5C 212.681,152.501 216.681,152.834 220.5,153.5 Z"/></g>
<g><path style="opacity:0.231" fill="#424243" d="M 267.5,153.5 C 278.007,152.177 288.674,152.177 299.5,153.5C 299.376,154.107 299.043,154.44 298.5,154.5C 288.347,153.506 278.014,153.172 267.5,153.5 Z"/></g>
<g><path style="opacity:0.231" fill="#454547" d="M 315.5,153.5 C 328.339,152.175 341.339,152.175 354.5,153.5C 354.376,154.107 354.043,154.44 353.5,154.5C 341.011,153.505 328.344,153.171 315.5,153.5 Z"/></g>
<g><path style="opacity:1" fill="#f3f3f3" d="M 220.5,153.5 C 236.472,154.971 243.305,163.637 241,179.5C 236.895,188.758 229.728,193.424 219.5,193.5C 209.833,193.5 200.167,193.5 190.5,193.5C 190.5,185.167 190.5,176.833 190.5,168.5C 194.833,168.5 199.167,168.5 203.5,168.5C 203.5,173.167 203.5,177.833 203.5,182.5C 209.509,182.666 215.509,182.499 221.5,182C 229.006,178.621 230.34,173.621 225.5,167C 223.593,165.878 221.593,165.045 219.5,164.5C 209.833,163.833 200.167,163.167 190.5,162.5C 192.5,159.833 194.5,157.167 196.5,154.5C 204.414,153.533 212.414,153.199 220.5,153.5 Z"/></g>
<g><path style="opacity:1" fill="#edeeee" d="M 267.5,153.5 C 278.014,153.172 288.347,153.506 298.5,154.5C 296.384,157.789 294.051,160.956 291.5,164C 283.167,164.333 274.833,164.667 266.5,165C 258.994,168.379 257.66,173.379 262.5,180C 264.193,180.847 265.86,181.68 267.5,182.5C 277.833,183.167 288.167,183.833 298.5,184.5C 295.81,187.37 293.476,190.537 291.5,194C 281.788,194.824 272.121,194.491 262.5,193C 253.084,190.757 247.751,184.923 246.5,175.5C 246.5,174.167 246.5,172.833 246.5,171.5C 248.483,159.861 255.483,153.861 267.5,153.5 Z"/></g>
<g><path style="opacity:1" fill="#eff0f0" d="M 315.5,153.5 C 328.344,153.171 341.011,153.505 353.5,154.5C 351.769,157.615 349.769,160.615 347.5,163.5C 336.849,164.332 326.182,164.832 315.5,165C 314.167,166 314.167,167 315.5,168C 326.549,168.12 337.549,168.787 348.5,170C 353.858,171.711 356.191,175.378 355.5,181C 354.993,190.283 349.993,194.45 340.5,193.5C 327.124,194.148 314.124,193.481 301.5,191.5C 303.273,188.94 305.273,186.607 307.5,184.5C 318.932,183.853 330.265,183.187 341.5,182.5C 343.116,180.584 342.782,179.084 340.5,178C 330.167,177.667 319.833,177.333 309.5,177C 301.175,172.481 299.341,165.981 304,157.5C 307.292,154.68 311.125,153.347 315.5,153.5 Z"/></g>
<g><path style="opacity:1" fill="#1c375b" d="M 81.5,153.5 C 82.791,153.263 83.791,153.596 84.5,154.5C 80.9319,154.759 79.5985,156.759 80.5,160.5C 82.1667,160.5 83.8333,160.5 85.5,160.5C 85.5,160.833 85.5,161.167 85.5,161.5C 80.2972,163.145 77.7972,161.145 78,155.5C 78.8159,154.177 79.9826,153.511 81.5,153.5 Z"/></g>
<g><path style="opacity:0.776" fill="#535454" d="M 70.5,151.5 C 74.7868,154.595 75.4535,158.261 72.5,162.5C 72.8866,158.556 72.22,154.889 70.5,151.5 Z"/></g>
<g><path style="opacity:0.055" fill="#030c1e" d="M 81.5,153.5 C 83.4888,152.113 85.3221,152.447 87,154.5C 87.5204,158.789 88.6871,162.789 90.5,166.5C 88.9582,165.699 87.2915,165.366 85.5,165.5C 90.683,164.628 90.683,163.294 85.5,161.5C 85.5,161.167 85.5,160.833 85.5,160.5C 86.1386,159.903 86.472,159.07 86.5,158C 86.6134,156.301 85.9468,155.134 84.5,154.5C 83.791,153.596 82.791,153.263 81.5,153.5 Z"/></g>
<g><path style="opacity:1" fill="#275699" d="M 84.5,154.5 C 85.9468,155.134 86.6134,156.301 86.5,158C 86.472,159.07 86.1386,159.903 85.5,160.5C 83.8333,160.5 82.1667,160.5 80.5,160.5C 79.5985,156.759 80.9319,154.759 84.5,154.5 Z"/></g>
<g><path style="opacity:1" fill="#cfd0d1" d="M 63.5,150.5 C 65.1667,150.5 66.8333,150.5 68.5,150.5C 69.1667,150.833 69.8333,151.167 70.5,151.5C 72.22,154.889 72.8866,158.556 72.5,162.5C 72.1667,163.5 71.5,164.167 70.5,164.5C 69.8333,164.5 69.5,164.833 69.5,165.5C 60.8348,166.999 57.3348,163.333 59,154.5C 59.7921,152.356 61.2921,151.023 63.5,150.5 Z"/></g>
<g><path style="opacity:0.522" fill="#143645" d="M 41.5,160.5 C 41.5,162.5 41.5,164.5 41.5,166.5C 40.5222,166.189 39.8555,165.522 39.5,164.5C 39.9943,162.974 40.661,161.641 41.5,160.5 Z"/></g>
<g><path style="opacity:0.514" fill="#818181" d="M 190.5,162.5 C 200.167,163.167 209.833,163.833 219.5,164.5C 209.478,164.832 199.478,164.499 189.5,163.5C 189.624,162.893 189.957,162.56 190.5,162.5 Z"/></g>
<g><path style="opacity:1" fill="#30afda" d="M 52.5,158.5 C 52.5,161.833 52.5,165.167 52.5,168.5C 50.5165,168.383 48.8498,169.05 47.5,170.5C 45.9291,169.691 44.2624,169.357 42.5,169.5C 41.596,168.791 41.2627,167.791 41.5,166.5C 41.5,164.5 41.5,162.5 41.5,160.5C 43.9225,153.236 47.5892,152.57 52.5,158.5 Z"/></g>
<g><path style="opacity:0.014" fill="#111111" d="M 70.5,164.5 C 71.1098,165.391 71.4431,166.391 71.5,167.5C 70.5,167.167 69.8333,166.5 69.5,165.5C 69.5,164.833 69.8333,164.5 70.5,164.5 Z"/></g>
<g><path style="opacity:0.018" fill="#000000" d="M 190.5,165.5 C 192.199,165.34 193.866,165.506 195.5,166C 193.415,168.139 191.749,167.972 190.5,165.5 Z"/></g>
<g><path style="opacity:0.009" fill="#000000" d="M 199.5,165.5 C 200.978,165.238 202.311,165.571 203.5,166.5C 202.833,166.833 202.167,167.167 201.5,167.5C 200.287,167.253 199.62,166.586 199.5,165.5 Z"/></g>
<g><path style="opacity:1" fill="#213d68" d="M 97.5,160.5 C 101.053,162.04 102.22,164.707 101,168.5C 97.5491,170.17 95.0491,169.17 93.5,165.5C 94.1598,163.185 95.4931,161.519 97.5,160.5 Z"/></g>
<g><path style="opacity:0.965" fill="#7e7e81" d="M 79.5,171.5 C 76.8369,170.248 74.1702,169.248 71.5,168.5C 71.5,168.167 71.5,167.833 71.5,167.5C 72.1174,167.389 72.6174,167.056 73,166.5C 75.7572,167.603 77.9238,169.269 79.5,171.5 Z"/></g>
<g><path style="opacity:1" fill="#3385a5" d="M 52.5,158.5 C 54.9397,161.942 55.1064,165.608 53,169.5C 49.3774,173.478 45.8774,173.478 42.5,169.5C 44.2624,169.357 45.9291,169.691 47.5,170.5C 48.8498,169.05 50.5165,168.383 52.5,168.5C 52.5,165.167 52.5,161.833 52.5,158.5 Z"/></g>
<g><path style="opacity:0.929" fill="#20355d" d="M 85.5,165.5 C 87.2915,165.366 88.9582,165.699 90.5,166.5C 92.0622,168.901 91.7288,170.901 89.5,172.5C 87.917,174.863 86.0836,174.863 84,172.5C 81.5395,169.446 82.0395,167.113 85.5,165.5 Z"/></g>
<g><path style="opacity:0.973" fill="#2458a3" d="M 89.5,172.5 C 84.8415,172.985 83.5081,171.152 85.5,167C 86.7839,166.316 87.9505,166.483 89,167.5C 89.4935,169.134 89.6602,170.801 89.5,172.5 Z"/></g>
<g><path style="opacity:0.259" fill="#2d2d2e" d="M 246.5,171.5 C 246.5,172.833 246.5,174.167 246.5,175.5C 245.609,174.739 244.942,173.739 244.5,172.5C 244.957,171.702 245.624,171.369 246.5,171.5 Z"/></g>
<g><path style="opacity:1" fill="#213c6a" d="M 100.5,171.5 C 104.264,172.385 105.264,174.552 103.5,178C 97.1417,178.121 96.1417,175.954 100.5,171.5 Z"/></g>
<g><path style="opacity:1" fill="#cdcecf" d="M 71.5,168.5 C 74.1702,169.248 76.8369,170.248 79.5,171.5C 81.2849,175.152 80.6182,178.152 77.5,180.5C 76.8333,180.5 76.5,180.833 76.5,181.5C 66.3803,182.636 63.7137,178.469 68.5,169C 69.448,168.517 70.448,168.351 71.5,168.5 Z"/></g>
<g><path style="opacity:0.231" fill="#414243" d="M 190.5,168.5 C 190.5,176.833 190.5,185.167 190.5,193.5C 200.167,193.5 209.833,193.5 219.5,193.5C 209.675,194.658 199.675,194.825 189.5,194C 189.579,192.093 189.246,190.093 188.5,188C 189.15,181.401 189.816,174.901 190.5,168.5 Z"/></g>
<g><path style="opacity:0.459" fill="#0f3043" d="M 60.5,178.5 C 63.0341,180.916 63.0341,183.25 60.5,185.5C 60.5,183.167 60.5,180.833 60.5,178.5 Z"/></g>
<g><path style="opacity:0.012" fill="#141415" d="M 77.5,180.5 C 78.1098,181.391 78.4431,182.391 78.5,183.5C 78.5,184.167 78.1667,184.5 77.5,184.5C 77.4431,183.391 77.1098,182.391 76.5,181.5C 76.5,180.833 76.8333,180.5 77.5,180.5 Z"/></g>
<g><path style="opacity:0.012" fill="#0e0d0f" d="M 84.5,183.5 C 83.1667,183.5 81.8333,183.5 80.5,183.5C 81.8333,180.833 83.1667,180.833 84.5,183.5 Z"/></g>
<g><path style="opacity:1" fill="#1b305a" d="M 90.5,174.5 C 94.7836,175.385 96.2836,178.051 95,182.5C 91.1186,185.487 88.2853,184.653 86.5,180C 87.0074,177.455 88.3407,175.621 90.5,174.5 Z"/></g>
<g><path style="opacity:0.961" fill="#235aa5" d="M 88.5,177.5 C 92.5,176.833 94.1667,178.5 93.5,182.5C 91.8333,182.5 90.1667,182.5 88.5,182.5C 88.5,180.833 88.5,179.167 88.5,177.5 Z"/></g>
<g><path style="opacity:0.486" fill="#7b7b7d" d="M 162.5,182.5 C 157.932,183.5 152.599,183.833 146.5,183.5C 150.899,182.809 155.399,182.142 160,181.5C 160.671,182.252 161.504,182.586 162.5,182.5 Z"/></g>
<g><path style="opacity:0.482" fill="#6d6d70" d="M 298.5,184.5 C 288.167,183.833 277.833,183.167 267.5,182.5C 277.886,182.809 288.219,182.476 298.5,181.5C 300.283,182.348 300.783,183.681 300,185.5C 299.617,184.944 299.117,184.611 298.5,184.5 Z"/></g>
<g><path style="opacity:0.478" fill="#838385" d="M 341.5,182.5 C 330.265,183.187 318.932,183.853 307.5,184.5C 318.451,182.522 329.784,181.856 341.5,182.5 Z"/></g>
<g><path style="opacity:1" fill="#31a5cd" d="M 60.5,178.5 C 60.5,180.833 60.5,183.167 60.5,185.5C 58.7758,190.726 55.6091,191.726 51,188.5C 49,184.5 49,180.5 51,176.5C 54.8497,173.725 58.0163,174.391 60.5,178.5 Z"/></g>
<g><path style="opacity:0.282" fill="#1e2119" d="M 87.5,186.5 C 89.9938,188.594 89.9938,190.594 87.5,192.5C 87.5,190.5 87.5,188.5 87.5,186.5 Z"/></g>
<g><path style="opacity:1" fill="#1f3d69" d="M 95.5,184.5 C 99.8857,185.071 101.552,187.405 100.5,191.5C 93.3692,193.27 91.7025,190.936 95.5,184.5 Z"/></g>
<g><path style="opacity:0.533" fill="#53585c" d="M 75.5,190.5 C 76.404,191.209 76.7373,192.209 76.5,193.5C 74.5188,192.895 74.1854,191.895 75.5,190.5 Z"/></g>
<g><path style="opacity:1" fill="#cfd0d2" d="M 78.5,183.5 C 79.1667,183.5 79.8333,183.5 80.5,183.5C 81.8333,183.5 83.1667,183.5 84.5,183.5C 85.8333,184.167 86.8333,185.167 87.5,186.5C 87.5,188.5 87.5,190.5 87.5,192.5C 86.6225,195.287 84.6225,196.62 81.5,196.5C 79.0582,196.714 77.3915,195.714 76.5,193.5C 76.7373,192.209 76.404,191.209 75.5,190.5C 75.2594,188.102 75.9261,186.102 77.5,184.5C 78.1667,184.5 78.5,184.167 78.5,183.5 Z"/></g>
<g><path style="opacity:0.243" fill="#3f4142" d="M 119.5,192.5 C 124.305,193.487 129.305,193.821 134.5,193.5C 129.32,194.815 123.986,194.815 118.5,193.5C 118.624,192.893 118.957,192.56 119.5,192.5 Z"/></g>
<g><path style="opacity:0.235" fill="#414243" d="M 139.5,192.5 C 154.833,193.833 170.167,193.833 185.5,192.5C 187.379,192.393 187.712,192.893 186.5,194C 170.5,194.667 154.5,194.667 138.5,194C 137.288,192.893 137.621,192.393 139.5,192.5 Z"/></g>
<g><path style="opacity:0.225" fill="#424246" d="M 301.5,191.5 C 314.124,193.481 327.124,194.148 340.5,193.5C 327.344,194.496 314.01,194.829 300.5,194.5C 300.263,193.209 300.596,192.209 301.5,191.5 Z"/></g>
<g><path style="opacity:1" fill="#3288a4" d="M 61.5,201.5 C 60.6236,201.631 59.9569,201.298 59.5,200.5C 60.767,198.629 60.767,196.796 59.5,195C 63.8002,190.153 67.4669,190.653 70.5,196.5C 70.478,200.399 68.6447,202.732 65,203.5C 63.3009,203.613 62.1342,202.947 61.5,201.5 Z"/></g>
<g><path style="opacity:0.025" fill="#1f2021" d="M 89.5,197.5 C 91.2884,196.378 93.2884,196.211 95.5,197C 96.2524,197.671 96.5858,198.504 96.5,199.5C 94.5214,197.832 92.188,197.166 89.5,197.5 Z"/></g>
<g><path style="opacity:1" fill="#cbcbcc" d="M 89.5,197.5 C 92.188,197.166 94.5214,197.832 96.5,199.5C 98.352,205.596 96.0187,208.429 89.5,208C 85.5222,204.377 85.5222,200.877 89.5,197.5 Z"/></g>
<g><path style="opacity:1" fill="#254473" d="M 101.5,192.5 C 106.514,192.985 107.514,195.152 104.5,199C 101.888,199.741 100.222,198.741 99.5,196C 100.305,194.887 100.972,193.721 101.5,192.5 Z"/></g>
<g><path style="opacity:1" fill="#2fb3e1" d="M 61.5,201.5 C 62.4132,199.914 62.4132,198.414 61.5,197C 64.4161,193.763 66.7494,194.263 68.5,198.5C 66.9375,201.029 64.6041,202.029 61.5,201.5 Z"/></g>
<g><path style="opacity:0.592" fill="#67686a" d="M 107.5,208.5 C 105.097,208.448 102.764,208.781 100.5,209.5C 101.312,208.007 102.645,207.34 104.5,207.5C 105.726,207.52 106.726,207.853 107.5,208.5 Z"/></g>
<g><path style="opacity:1" fill="#3486a1" d="M 78.5,205.5 C 83.4232,208.528 83.7565,212.028 79.5,216C 77.5,216.667 75.5,216.667 73.5,216C 72.87,214.108 71.87,212.441 70.5,211C 71.5937,209.22 72.5937,207.386 73.5,205.5C 75.3163,204.265 76.983,204.265 78.5,205.5 Z"/></g>
<g><path style="opacity:1" fill="#2eb4e2" d="M 78.5,205.5 C 79.2653,208.096 79.5987,210.763 79.5,213.5C 77.8333,213.5 76.1667,213.5 74.5,213.5C 73.5715,209.517 74.9049,206.85 78.5,205.5 Z"/></g>
<g><path style="opacity:1" fill="#2d508b" d="M 395.5,162.5 C 386.308,184.527 373.308,204.027 356.5,221C 354.252,222.914 351.752,224.414 349,225.5C 347.457,224.423 347.457,223.089 349,221.5C 362.049,206.503 369.549,189.17 371.5,169.5C 371.221,176.844 370.721,184.177 370,191.5C 369.333,190.167 368.667,190.167 368,191.5C 365.531,196.227 366.198,200.227 370,203.5C 370.199,201.598 371.033,200.098 372.5,199C 371.549,198.282 371.383,197.449 372,196.5C 373.156,197.993 373.99,197.826 374.5,196C 373.057,193.922 373.724,193.089 376.5,193.5C 378.028,193.203 379.028,191.203 379.5,187.5C 376.953,184.874 377.453,184.207 381,185.5C 381.945,185.095 382.612,184.428 383,183.5C 383.129,180.696 382.796,178.03 382,175.5C 382.388,176.428 383.055,177.095 384,177.5C 386.925,175.844 387.092,174.011 384.5,172C 389.655,172.003 391.322,169.67 389.5,165C 389.833,164.5 390.167,164 390.5,163.5C 391.167,164.167 391.833,164.833 392.5,165.5C 393.893,163.326 393.56,161.493 391.5,160C 392.448,159.517 393.448,159.351 394.5,159.5C 394.263,160.791 394.596,161.791 395.5,162.5 Z"/></g>
<g><path style="opacity:0.999" fill="#bcbdbf" d="M 107.5,208.5 C 108.117,208.611 108.617,208.944 109,209.5C 110.69,214.416 109.023,217.416 104,218.5C 99.6971,216.581 98.5304,213.581 100.5,209.5C 102.764,208.781 105.097,208.448 107.5,208.5 Z"/></g>
<g><path style="opacity:1" fill="#2e778d" d="M 92.5,224.5 C 92.6633,222.143 92.4966,219.81 92,217.5C 90.2245,216.464 88.3911,216.464 86.5,217.5C 86.8836,215.707 88.0503,214.707 90,214.5C 91.49,215.317 92.99,216.15 94.5,217C 94.1667,217.333 93.8333,217.667 93.5,218C 94.3081,218.308 94.9747,218.808 95.5,219.5C 94.7255,221.396 93.7255,223.063 92.5,224.5 Z"/></g>
<g><path style="opacity:1" fill="#31a9d4" d="M 92.5,224.5 C 90.7276,226.864 88.7276,226.864 86.5,224.5C 85.2335,222.028 85.2335,219.694 86.5,217.5C 88.3911,216.464 90.2245,216.464 92,217.5C 92.4966,219.81 92.6633,222.143 92.5,224.5 Z"/></g>
<g><path style="opacity:0.99" fill="#adafb0" d="M 114.5,215.5 C 120.148,216.129 121.481,218.795 118.5,223.5C 114.881,225.351 112.548,224.351 111.5,220.5C 111.757,218.308 112.757,216.641 114.5,215.5 Z"/></g>
<g><path style="opacity:0.004" fill="#000000" d="M 123.5,221.5 C 120.999,221.489 120.832,220.822 123,219.5C 123.464,220.094 123.631,220.761 123.5,221.5 Z"/></g>
<g><path style="opacity:0.022" fill="#050506" d="M 123.5,224.5 C 123.733,226.062 124.4,227.395 125.5,228.5C 120.226,228.623 119.559,227.29 123.5,224.5 Z"/></g>
<g><path style="opacity:1" fill="#c3c4c6" d="M 125.5,228.5 C 124.4,227.395 123.733,226.062 123.5,224.5C 123.5,223.5 123.5,222.5 123.5,221.5C 129.589,219.086 131.755,221.086 130,227.5C 128.644,228.38 127.144,228.714 125.5,228.5 Z"/></g>
<g><path style="opacity:1" fill="#34a0c4" d="M 103.5,223.5 C 108.776,224.293 110.609,227.293 109,232.5C 107.938,233.899 106.605,234.899 105,235.5C 102.491,234.171 100.658,232.171 99.5,229.5C 100.844,227.471 102.177,225.471 103.5,223.5 Z"/></g>
<g><path style="opacity:0.019" fill="#000000" d="M 135.5,227.5 C 135.5,228.5 135.5,229.5 135.5,230.5C 134.703,231.478 134.036,231.145 133.5,229.5C 133.855,228.478 134.522,227.811 135.5,227.5 Z"/></g>
<g><path style="opacity:0.967" fill="#c9c8cd" d="M 135.5,230.5 C 135.5,229.5 135.5,228.5 135.5,227.5C 136.556,223.315 138.723,222.648 142,225.5C 143.139,231.259 140.972,232.926 135.5,230.5 Z"/></g>
<g><path style="opacity:1" fill="#2a657b" d="M 122.5,237.5 C 122.66,235.801 122.494,234.134 122,232.5C 120.667,231.167 119.333,231.167 118,232.5C 117.506,234.134 117.34,235.801 117.5,237.5C 116.378,235.712 116.211,233.712 117,231.5C 121.001,228.766 123.501,229.933 124.5,235C 124.316,236.376 123.649,237.209 122.5,237.5 Z"/></g>
<g><path style="opacity:1" fill="#3aa7ca" d="M 122.5,237.5 C 120.833,240.167 119.167,240.167 117.5,237.5C 117.34,235.801 117.506,234.134 118,232.5C 119.333,231.167 120.667,231.167 122,232.5C 122.494,234.134 122.66,235.801 122.5,237.5 Z"/></g>
<g><path style="opacity:1" fill="#3aafd8" d="M 130.5,240.5 C 130.5,240.167 130.5,239.833 130.5,239.5C 129.833,235.5 131.5,233.833 135.5,234.5C 135.5,236.5 135.5,238.5 135.5,240.5C 133.833,240.5 132.167,240.5 130.5,240.5 Z"/></g>
<g><path style="opacity:0.11" fill="#071b27" d="M 148.5,235.5 C 151.048,237.296 151.048,238.962 148.5,240.5C 148.5,238.833 148.5,237.167 148.5,235.5 Z"/></g>
<g><path style="opacity:1" fill="#3c94b3" d="M 148.5,235.5 C 148.5,237.167 148.5,238.833 148.5,240.5C 146.497,243.958 144.163,243.791 141.5,240C 141.782,234.883 144.115,233.383 148.5,235.5 Z"/></g>
<g><path style="opacity:1" fill="#2e6f80" d="M 165.5,235.5 C 167.541,235.854 169.374,235.854 171,235.5C 171.635,239.191 170.135,241.025 166.5,241C 165.594,239.301 165.261,237.467 165.5,235.5 Z"/></g>
<g><path style="opacity:1" fill="#2a6175" d="M 155.5,235.5 C 160.906,234.735 162.906,237.069 161.5,242.5C 160.178,242.33 159.011,242.663 158,243.5C 156.795,242.929 155.628,242.262 154.5,241.5C 155.348,239.591 155.682,237.591 155.5,235.5 Z"/></g>
<g><path style="opacity:0.988" fill="#3bafd6" d="M 156.5,236.5 C 159.91,236.384 161.244,238.05 160.5,241.5C 157.09,241.616 155.756,239.95 156.5,236.5 Z"/></g>
<g><path style="opacity:1" fill="#2a677a" d="M 130.5,240.5 C 132.167,240.5 133.833,240.5 135.5,240.5C 135.5,238.5 135.5,236.5 135.5,234.5C 131.5,233.833 129.833,235.5 130.5,239.5C 128.771,236.351 129.605,234.018 133,232.5C 134.15,233.424 135.15,233.424 136,232.5C 136.424,234.515 137.258,236.349 138.5,238C 137.231,239.171 135.564,240.671 133.5,242.5C 132.261,242.058 131.261,241.391 130.5,240.5 Z"/></g>
</svg>
