<svg version="1.1" id="Layer_1" xmlns="http://www.w3.org/2000/svg" xmlns:xlink="http://www.w3.org/1999/xlink" x="0px" y="0px"
	 width="100%" viewBox="0 0 500 500" enable-background="new 0 0 500 500" xml:space="preserve">
<path fill="none" opacity="1.000000" stroke="#000000" stroke-linecap="round" stroke-linejoin="round" stroke-width="3.000000"
	d="
M329.500000,173.500000 
	C332.202454,162.936569 330.913605,152.169312 330.928894,141.499893 
	C330.969971,112.813057 324.750214,85.537666 310.413055,60.549885 
	C299.604858,41.712585 285.044495,26.523592 262.942566,21.766834 
	C253.742371,19.786772 243.841080,19.480654 234.500000,23.000000 
"/>
<path fill="none" opacity="1.000000" stroke="#000000" stroke-linecap="round" stroke-linejoin="round" stroke-width="18.000000"
	d="
M417.000000,231.500000 
	C417.921783,227.466019 421.121948,225.883896 424.455719,226.684387 
	C428.393677,227.629913 431.943146,231.008881 431.747406,234.987579 
	C431.458191,240.865738 433.134338,245.484131 436.434998,250.047028 
	C438.510345,252.916031 438.434570,256.546417 438.500000,260.000000 
"/>
<path fill="none" opacity="1.000000" stroke="#000000" stroke-linecap="round" stroke-linejoin="round" stroke-width="3.000000"
	d="
M452.000000,291.000000 
	C459.952911,303.003418 465.682129,315.932800 469.097046,329.976410 
	C470.748444,336.767700 473.559601,343.286560 472.500000,350.500000 
	C476.827423,354.643707 472.292969,360.001770 474.434906,364.530792 
	C475.526428,366.838684 473.673553,369.129120 473.405975,371.489349 
	C472.616852,378.450775 472.630188,385.649658 468.991028,391.994843 
	C461.125275,405.709564 450.229584,415.626099 435.050629,421.139404 
	C420.839935,426.301025 406.282776,428.114990 391.512970,426.848724 
	C368.374969,424.865021 346.635254,417.437317 326.050873,406.900635 
	C316.347809,401.933868 306.945496,396.305450 298.000000,390.000000 
"/>
<path fill="none" opacity="1.000000" stroke="#000000" stroke-linecap="round" stroke-linejoin="round" stroke-width="3.000000"
	d="
M126.500000,251.000000 
	C115.754372,254.205811 106.420212,260.219604 97.021378,266.034546 
	C82.814888,274.823975 69.850677,285.230804 58.537334,297.534332 
	C45.546822,311.661804 34.674419,327.276276 29.618002,346.031799 
	C25.165787,362.546265 25.311543,378.977631 33.970222,394.516602 
	C36.558662,399.161835 39.833958,403.213470 43.502258,406.997803 
	C44.368488,407.891479 45.364426,408.146759 46.500000,407.500000 
"/>
<path fill="none" opacity="1.000000" stroke="#000000" stroke-linecap="round" stroke-linejoin="round" stroke-width="3.000000"
	d="
M131.500000,130.000000 
	C132.018982,123.703339 135.540207,118.457840 138.216141,113.108116 
	C141.283875,106.975128 145.109604,100.578644 150.282578,96.345314 
	C154.398438,92.977097 157.922195,89.280289 161.502625,85.502487 
	C162.150940,84.818428 162.732513,83.756035 163.515656,83.563751 
	C171.073486,81.708054 173.630402,74.864243 177.432327,69.452454 
	C186.099777,57.114895 196.689102,46.918026 208.227783,37.177525 
	C217.197021,29.606039 226.335739,31.617794 235.475296,32.707203 
	C255.460968,35.089443 268.836914,48.078640 279.934204,63.547203 
	C292.816925,81.504478 300.056610,101.796715 304.134827,123.474632 
	C306.819275,137.743546 307.781555,152.083496 308.519531,166.498993 
	C308.688477,169.798996 307.201843,172.786255 307.000000,176.000000 
"/>
<path fill="none" opacity="1.000000" stroke="#000000" stroke-linecap="round" stroke-linejoin="round" stroke-width="3.000000"
	d="
M233.500000,23.500000 
	C233.136337,27.048517 236.578018,25.833252 237.496063,25.813816 
	C265.099487,25.229372 281.984222,42.001564 295.836548,62.609867 
	C306.013611,77.750412 311.589722,94.991524 315.130341,112.974335 
	C318.067535,127.892334 319.490326,142.846848 319.527130,157.999939 
	C319.537476,162.249619 319.529449,166.456863 318.000000,170.500000 
"/>
<path fill="none" opacity="1.000000" stroke="#000000" stroke-linecap="round" stroke-linejoin="round" stroke-width="3.000000"
	d="
M472.000000,377.000000 
	C470.227203,377.504272 469.727264,379.151398 469.023071,380.511932 
	C459.828430,398.276886 444.257019,407.013672 425.492157,410.962799 
	C398.850861,416.569458 373.083008,412.011322 348.049591,402.864288 
	C332.903595,397.330048 318.484283,389.992859 305.000000,381.000000 
"/>
<path fill="none" opacity="1.000000" stroke="#000000" stroke-linecap="round" stroke-linejoin="round" stroke-width="3.000000"
	d="
M472.000000,363.000000 
	C462.548553,383.972015 445.114502,393.883698 423.499817,397.999115 
	C416.232239,399.382843 408.911865,400.244110 401.500244,399.992554 
	C388.264862,399.543365 375.214478,397.458374 362.534027,393.879456 
	C346.661194,389.399628 331.452240,383.095795 316.911194,375.162811 
	C314.434753,373.811737 312.456360,371.477661 309.500000,371.000000 
"/>
<path fill="none" opacity="1.000000" stroke="#000000" stroke-linecap="round" stroke-linejoin="round" stroke-width="3.000000"
	d="
M130.500000,261.000000 
	C122.089607,263.293030 115.134460,268.528412 108.112091,273.169586 
	C88.030197,286.442108 69.942574,302.105286 56.036057,322.025177 
	C46.866711,335.159515 39.963295,349.534424 38.212055,365.523224 
	C36.800339,378.412170 38.047962,391.164398 44.764946,403.131927 
	C47.865746,408.656586 51.379177,413.063049 56.453190,416.567780 
	C57.492210,417.285431 58.366585,417.566895 59.500000,417.500000 
"/>
<path fill="none" opacity="1.000000" stroke="#000000" stroke-linecap="round" stroke-linejoin="round" stroke-width="3.000000"
	d="
M471.500000,352.000000 
	C466.260773,359.817017 461.181061,367.782349 452.997223,372.995636 
	C442.300598,379.809570 430.686432,383.771576 418.016418,385.150726 
	C413.159607,385.679382 408.351013,385.931580 403.499969,385.998138 
	C381.774628,386.296173 361.162994,381.065979 340.990479,373.525452 
	C332.227295,370.249756 323.838684,366.191040 315.500000,362.000000 
"/>
<path fill="none" opacity="1.000000" stroke="#000000" stroke-linecap="round" stroke-linejoin="round" stroke-width="3.000000"
	d="
M210.000000,37.500000 
	C213.439651,39.664749 217.412643,38.661266 221.007782,38.803722 
	C231.805969,39.231602 240.688675,44.034672 248.943832,50.076736 
	C263.811401,60.958485 273.383240,76.111603 280.918854,92.537224 
	C286.836487,105.436104 290.915283,119.009331 293.506989,132.998703 
	C295.193298,142.101379 296.661438,151.227890 297.000305,160.499985 
	C297.097778,163.166733 298.322845,165.833328 297.000000,168.500000 
"/>
<path fill="none" opacity="1.000000" stroke="#000000" stroke-linecap="round" stroke-linejoin="round" stroke-width="3.000000"
	d="
M132.000000,272.000000 
	C112.021782,283.862030 93.927307,298.045258 78.503983,315.503510 
	C66.042152,329.609558 55.937737,345.332886 51.234779,363.560577 
	C46.780426,380.824768 48.068707,397.591064 58.102036,413.747131 
	C62.912144,421.492584 69.952538,423.534424 76.625046,426.185242 
	C86.866745,430.254028 97.850082,432.632050 108.999771,433.502960 
	C114.494263,433.932129 119.891251,435.512878 125.513962,434.584564 
	C126.920593,434.352356 128.687500,434.834167 129.968185,435.556396 
	C136.180328,439.059723 142.799026,439.058411 149.487473,437.926025 
	C151.907837,437.516266 153.811935,437.692749 155.514328,439.486420 
	C155.917709,439.911469 156.515686,440.145538 156.997574,440.503265 
	C161.734650,444.019623 167.504974,441.815704 172.429764,443.242432 
	C177.759323,444.786377 182.528275,446.510315 188.038971,444.088684 
	C191.452637,442.588562 196.085510,444.307343 198.886124,441.390656 
	C201.466675,438.703247 199.722687,434.135040 202.000000,431.000000 
"/>
<path fill="none" opacity="1.000000" stroke="#000000" stroke-linecap="round" stroke-linejoin="round" stroke-width="3.000000"
	d="
M470.000000,341.000000 
	C464.691559,347.338348 460.110291,354.305206 453.025543,359.038239 
	C443.260498,365.561890 432.538696,369.145844 421.024658,371.142181 
	C415.349640,372.126099 409.608978,372.495514 403.988678,372.739594 
	C396.878357,373.048370 389.652161,371.989929 382.484680,371.127197 
	C370.331512,369.664307 358.579865,366.751648 347.010040,362.969238 
	C339.181366,360.409821 331.407990,357.661041 324.000000,354.000000 
"/>
<path fill="none" opacity="1.000000" stroke="#000000" stroke-linecap="round" stroke-linejoin="round" stroke-width="3.000000"
	d="
M137.000000,282.000000 
	C129.668930,285.717529 123.310730,290.965179 117.122612,296.146454 
	C103.528244,307.528900 90.797913,319.899323 80.505623,334.503967 
	C72.192787,346.299805 65.026291,359.047913 62.364960,373.069275 
	C59.513538,388.092163 58.375248,403.796997 68.406441,417.568146 
	C69.312187,418.811615 70.364861,420.573883 70.000000,422.500000 
"/>
<path fill="none" opacity="1.000000" stroke="#000000" stroke-linecap="round" stroke-linejoin="round" stroke-width="3.000000"
	d="
M286.000000,168.500000 
	C287.936401,162.699814 285.746857,157.013428 284.786835,151.537369 
	C282.188080,136.713364 278.880798,122.022896 273.078156,107.967735 
	C266.037170,90.913109 257.019501,75.294113 243.513626,62.485638 
	C232.823990,52.347988 220.674561,45.715057 205.500351,46.017338 
	C204.334946,46.040554 203.361099,45.750031 202.500000,45.000000 
"/>
<path fill="none" opacity="1.000000" stroke="#000000" stroke-linecap="round" stroke-linejoin="round" stroke-width="3.000000"
	d="
M143.000000,291.000000 
	C118.152229,308.592926 97.051086,329.530945 82.939018,356.968628 
	C75.135185,372.141388 71.735092,388.078156 73.071678,404.994324 
	C73.509117,410.530609 75.773849,415.622101 78.417191,420.544464 
	C79.352905,422.286926 80.550171,424.237457 80.000000,426.500000 
"/>
<path fill="none" opacity="1.000000" stroke="#000000" stroke-linecap="round" stroke-linejoin="round" stroke-width="3.000000"
	d="
M465.000000,332.000000 
	C456.386505,345.403778 443.106628,351.938141 428.469391,355.886475 
	C415.098724,359.493164 401.190125,360.131622 387.517853,358.814728 
	C367.567383,356.893158 348.047699,352.482544 329.487823,344.528442 
	C328.582642,344.140503 327.500000,344.166656 326.500000,344.000000 
"/>
<path fill="none" opacity="1.000000" stroke="#000000" stroke-linecap="round" stroke-linejoin="round" stroke-width="3.000000"
	d="
M195.000000,52.000000 
	C197.819656,54.712273 201.715897,54.094967 205.039337,54.819550 
	C214.437164,56.868484 222.487030,61.327129 229.443192,67.563370 
	C250.038651,86.027374 261.489624,109.817276 269.166412,135.951111 
	C271.892578,145.231735 273.365173,154.740051 275.932739,164.018616 
	C276.403961,165.721542 276.000000,167.666672 276.000000,169.500000 
"/>
<path fill="none" opacity="1.000000" stroke="#000000" stroke-linecap="round" stroke-linejoin="round" stroke-width="3.000000"
	d="
M463.500000,322.000000 
	C457.341980,323.920502 454.231384,329.865540 448.995453,332.992401 
	C439.253326,338.810425 428.777802,342.336487 417.522461,344.140167 
	C409.518188,345.422882 401.406281,345.560608 393.497498,345.611328 
	C384.578369,345.668579 375.461700,344.923706 366.461243,343.202728 
	C355.134918,341.036987 344.108276,337.911194 333.000000,335.000000 
"/>
<path fill="none" opacity="1.000000" stroke="#000000" stroke-linecap="round" stroke-linejoin="round" stroke-width="3.000000"
	d="
M147.000000,301.000000 
	C129.207672,315.782074 113.211098,332.176361 100.990623,351.994232 
	C93.068733,364.841095 87.302956,378.651276 85.224632,393.531372 
	C83.899002,403.022491 84.458321,412.842163 88.475067,422.010925 
	C89.445190,424.225342 90.206612,426.568573 89.000000,429.000000 
"/>
<path fill="none" opacity="1.000000" stroke="#000000" stroke-linecap="round" stroke-linejoin="round" stroke-width="3.000000"
	d="
M154.000000,310.000000 
	C145.479462,316.098663 138.494537,323.902771 131.654083,331.636292 
	C123.140472,341.261414 115.753922,351.860382 109.961639,363.480865 
	C104.099945,375.240692 99.414986,387.192780 97.753494,400.469147 
	C96.699966,408.887543 97.830566,416.640076 100.043167,424.487823 
	C100.754501,427.010803 100.299179,429.502289 100.500000,432.000000 
"/>
<path fill="none" opacity="1.000000" stroke="#000000" stroke-linecap="round" stroke-linejoin="round" stroke-width="3.000000"
	d="
M191.000000,62.000000 
	C214.434830,67.144249 228.834869,83.537941 240.952026,102.530609 
	C251.643173,119.288116 258.227386,137.803131 262.980225,157.004898 
	C263.875244,160.620956 265.526245,164.116440 265.000000,168.000000 
"/>
<path fill="none" opacity="1.000000" stroke="#000000" stroke-linecap="round" stroke-linejoin="round" stroke-width="3.000000"
	d="
M454.000000,313.000000 
	C444.791687,322.916748 432.665192,327.152710 419.983398,329.924103 
	C406.651703,332.837524 393.222687,333.508942 379.478149,332.236053 
	C366.611786,331.044525 353.993896,329.085449 341.505341,325.978546 
	C340.132538,325.637085 338.833344,325.000000 337.500000,324.500000 
"/>
<path fill="none" opacity="1.000000" stroke="#000000" stroke-linecap="round" stroke-linejoin="round" stroke-width="3.000000"
	d="
M159.000000,318.500000 
	C149.488083,329.554077 139.485947,340.156342 131.403519,352.436493 
	C122.097626,366.575439 114.743576,381.579834 111.268402,398.056610 
	C109.757660,405.219421 108.675842,412.895844 110.831703,420.547424 
	C111.795143,423.966827 110.825462,427.909821 112.000000,431.500000 
"/>
<path fill="none" opacity="1.000000" stroke="#000000" stroke-linecap="round" stroke-linejoin="round" stroke-width="3.000000"
	d="
M186.000000,72.000000 
	C206.125397,78.716530 219.379013,93.443176 230.461212,110.525162 
	C240.775650,126.423744 247.651199,143.888229 253.039230,161.988327 
	C253.882111,164.819855 255.177383,167.516449 255.500000,170.500000 
"/>
<path fill="none" opacity="1.000000" stroke="#000000" stroke-linecap="round" stroke-linejoin="round" stroke-width="3.000000"
	d="
M447.000000,304.000000 
	C437.209442,311.517487 425.804077,315.771606 413.961121,317.769562 
	C399.483673,320.211975 384.801666,320.825836 369.972748,319.257629 
	C361.444305,318.355682 352.988068,317.050842 344.515167,315.889313 
	C339.100800,315.147064 333.833344,313.333313 328.500000,312.000000 
"/>
<path fill="none" opacity="1.000000" stroke="#000000" stroke-linecap="round" stroke-linejoin="round" stroke-width="3.000000"
	d="
M165.500000,328.000000 
	C153.048798,341.357971 142.514847,356.078400 134.537888,372.518372 
	C127.430733,387.165802 122.445343,402.402313 122.952850,419.001434 
	C123.031380,421.570099 123.376511,424.038696 124.000000,426.500000 
"/>
<path fill="none" opacity="1.000000" stroke="#000000" stroke-linecap="round" stroke-linejoin="round" stroke-width="3.000000"
	d="
M180.000000,83.000000 
	C192.982407,87.096169 202.362000,96.288887 210.888992,106.096519 
	C225.849747,123.304146 234.972061,143.904907 242.965805,165.012955 
	C243.559631,166.580978 243.666672,168.333328 244.000000,170.000000 
"/>
<path fill="none" opacity="1.000000" stroke="#000000" stroke-linecap="round" stroke-linejoin="round" stroke-width="3.000000"
	d="
M438.500000,294.000000 
	C428.022675,300.940155 416.210449,304.074768 403.997009,305.980865 
	C394.727539,307.427490 385.334198,308.647125 376.013397,307.844574 
	C365.335266,306.925140 354.451294,307.635712 344.000000,304.500000 
"/>
<path fill="none" opacity="1.000000" stroke="#000000" stroke-linecap="round" stroke-linejoin="round" stroke-width="3.000000"
	d="
M172.000000,337.000000 
	C156.229828,355.605530 144.606628,376.560333 138.255692,400.069061 
	C136.390335,406.973846 134.842087,414.519531 136.500000,422.000000 
"/>
<path fill="none" opacity="1.000000" stroke="#000000" stroke-linecap="round" stroke-linejoin="round" stroke-width="3.000000"
	d="
M233.000000,171.500000 
	C229.824768,159.258804 223.747086,148.308701 217.434158,137.538589 
	C210.428818,125.587242 201.771561,114.868790 191.510361,105.488663 
	C187.238464,101.583549 182.506012,98.369148 177.532944,95.444000 
	C176.621170,94.907684 175.833023,95.168228 175.000000,95.000000 
"/>
<path fill="none" opacity="1.000000" stroke="#000000" stroke-linecap="round" stroke-linejoin="round" stroke-width="3.000000"
	d="
M428.000000,284.500000 
	C420.719604,289.365143 412.304871,291.204315 403.980743,292.905762 
	C390.157135,295.731262 376.092133,296.242249 361.999664,296.021667 
	C357.230957,295.947052 352.584412,295.242371 348.000000,294.000000 
"/>
<path fill="none" opacity="1.000000" stroke="#000000" stroke-linecap="round" stroke-linejoin="round" stroke-width="3.000000"
	d="
M180.000000,344.500000 
	C171.208038,355.019470 165.384811,367.255219 159.431351,379.466522 
	C154.146179,390.307068 151.440155,401.841003 149.019089,413.503967 
	C148.689499,415.091705 149.218414,416.599609 150.000000,418.000000 
"/>
<path fill="none" opacity="1.000000" stroke="#000000" stroke-linecap="round" stroke-linejoin="round" stroke-width="3.000000"
	d="
M171.500000,108.000000 
	C174.905106,108.187218 177.108566,110.608406 179.471420,112.535057 
	C195.535965,125.634010 207.165771,142.178467 216.527634,160.485870 
	C218.734390,164.801270 222.009811,168.578430 223.000000,173.500000 
"/>
<path fill="none" opacity="1.000000" stroke="#000000" stroke-linecap="round" stroke-linejoin="round" stroke-width="8.000000"
	d="
M269.500000,171.000000 
	C265.771606,167.407394 261.446259,168.911148 257.538055,170.122742 
	C253.601898,171.343002 250.090088,171.474701 245.952881,170.780991 
	C241.963043,170.111984 237.514236,171.472046 233.509262,173.023911 
	C230.565277,174.164612 227.798767,174.623581 224.476013,174.179443 
	C219.142334,173.466492 214.985992,177.708603 210.048706,179.165100 
	C206.791336,180.126007 204.183594,183.133316 200.961105,184.401154 
	C194.596436,186.905243 191.947403,191.444839 191.975067,198.000107 
	C191.980682,199.332703 191.666672,200.666672 191.500000,202.000000 
"/>
<path fill="none" opacity="1.000000" stroke="#000000" stroke-linecap="round" stroke-linejoin="round" stroke-width="3.000000"
	d="
M336.000000,245.000000 
	C340.203430,241.047119 342.310669,235.548828 346.394257,231.396027 
	C351.380554,226.325256 350.927032,223.625076 347.572418,217.460587 
	C343.049286,209.148819 335.935547,203.080460 329.957642,196.035950 
	C327.538849,193.185577 325.239502,190.369751 323.418182,187.044815 
	C320.650513,181.992401 316.497314,178.457611 310.504272,177.474045 
	C305.071045,176.582382 300.052887,174.087189 294.514343,173.386597 
	C291.765167,173.038864 289.010895,171.784378 286.538239,170.430161 
	C283.226624,168.616455 279.868744,168.612152 276.517822,169.562836 
	C273.085388,170.536636 268.689484,169.843674 267.390991,174.972397 
	C266.733734,177.568542 263.532837,177.187851 261.460358,177.881561 
	C259.840210,178.423859 258.086853,178.403778 257.005646,180.210098 
	C259.707916,185.869461 258.676636,192.547394 261.000000,198.500000 
"/>
<path fill="none" opacity="1.000000" stroke="#000000" stroke-linecap="round" stroke-linejoin="round" stroke-width="3.000000"
	d="
M415.000000,276.000000 
	C405.233093,280.075134 394.943878,281.636688 384.527435,283.184570 
	C373.513824,284.821167 362.443176,284.130768 351.483398,284.482452 
	C343.404083,284.741699 334.647858,283.991455 326.500000,281.500000 
"/>
<path fill="none" opacity="1.000000" stroke="#000000" stroke-linecap="round" stroke-linejoin="round" stroke-width="3.000000"
	d="
M188.000000,351.500000 
	C176.611237,368.534576 168.238098,386.837036 163.804260,406.956879 
	C163.184525,409.769104 163.578430,412.000000 164.000000,414.500000 
"/>
<path fill="none" opacity="1.000000" stroke="#000000" stroke-linecap="round" stroke-linejoin="round" stroke-width="3.000000"
	d="
M171.000000,123.500000 
	C175.355591,124.219803 177.766510,127.864037 180.381622,130.612625 
	C193.633011,144.540405 204.694061,160.085663 213.000000,177.500000 
"/>
<path fill="none" opacity="1.000000" stroke="#000000" stroke-linecap="round" stroke-linejoin="round" stroke-width="19.000000"
	d="
M387.500000,243.000000 
	C390.250641,248.459518 394.899170,251.242874 400.413666,253.694199 
	C406.523468,256.410187 411.443756,261.406769 417.478851,264.540741 
	C423.512115,267.673767 429.815308,268.740753 436.500000,268.000000 
"/>
<path fill="none" opacity="1.000000" stroke="#000000" stroke-linecap="round" stroke-linejoin="round" stroke-width="3.000000"
	d="
M247.000000,384.500000 
	C245.488068,389.082489 246.051453,393.817352 246.015091,398.500122 
	C245.958145,405.833008 245.836761,413.171844 246.069901,420.497772 
	C246.183945,424.080841 244.875610,427.239655 243.894974,430.468109 
	C243.232819,432.648102 241.532028,434.384521 239.000000,432.000000 
"/>
<path fill="none" opacity="1.000000" stroke="#000000" stroke-linecap="round" stroke-linejoin="round" stroke-width="3.000000"
	d="
M403.500000,266.000000 
	C394.879364,269.707123 385.594360,270.369293 376.529510,272.150177 
	C369.188538,273.592407 361.681122,271.743652 354.509216,274.028931 
	C353.102997,274.477020 351.399139,274.464935 350.409607,276.162231 
	C347.102356,272.458008 347.866547,267.750702 347.000000,263.500000 
"/>
<path fill="none" opacity="1.000000" stroke="#000000" stroke-linecap="round" stroke-linejoin="round" stroke-width="8.000000"
	d="
M340.500000,315.500000 
	C339.058411,322.410461 334.598633,328.008606 330.686981,333.267151 
	C325.206818,340.634369 320.511871,348.689911 313.693604,355.202667 
	C310.481445,358.270874 308.187592,362.234528 304.088257,364.649780 
	C302.544098,365.559540 301.550568,368.058228 301.077545,370.018707 
	C298.989777,378.671753 295.010010,386.439270 290.506531,394.003876 
	C288.010712,398.196167 283.310730,399.786438 280.021149,403.021515 
	C278.471588,404.545471 277.743835,402.420013 276.515320,402.317047 
	C275.040466,402.193481 274.584839,399.497986 272.500000,399.500000 
"/>
<path fill="none" opacity="1.000000" stroke="#000000" stroke-linecap="round" stroke-linejoin="round" stroke-width="3.000000"
	d="
M197.000000,356.000000 
	C189.892563,370.041748 182.829849,384.072174 178.814468,399.451569 
	C178.115982,402.126770 178.124161,404.166656 179.000000,406.500000 
"/>
<path fill="none" opacity="1.000000" stroke="#000000" stroke-linecap="round" stroke-linejoin="round" stroke-width="3.000000"
	d="
M270.000000,218.000000 
	C270.966827,223.810471 270.282867,229.668106 270.500000,235.500000 
"/>
<path fill="none" opacity="1.000000" stroke="#000000" stroke-linecap="round" stroke-linejoin="round" stroke-width="3.000000"
	d="
M202.000000,179.000000 
	C194.140152,165.551605 184.451828,153.473938 173.940628,142.054657 
	C171.513229,139.417557 168.052551,138.833710 164.500000,140.000000 
"/>
<path fill="none" opacity="1.000000" stroke="#000000" stroke-linecap="round" stroke-linejoin="round" stroke-width="6.000000"
	d="
M206.500000,304.500000 
	C201.166672,304.166687 195.833328,303.833344 190.500000,303.500000 
"/>
<path fill="none" opacity="1.000000" stroke="#000000" stroke-linecap="round" stroke-linejoin="round" stroke-width="3.000000"
	d="
M406.250000,222.250000 
	C397.035492,220.686554 387.566589,219.097580 378.595520,221.815292 
	C373.874756,223.245407 368.571747,224.551941 364.500000,228.000000 
"/>
<path fill="none" opacity="1.000000" stroke="#000000" stroke-linecap="round" stroke-linejoin="round" stroke-width="10.000000"
	d="
M213.500000,352.000000 
	C210.000000,352.833313 206.537399,353.923462 202.991241,354.439880 
	C197.652847,355.217316 190.553299,351.634033 188.621033,346.950073 
	C187.760208,344.863373 186.634796,343.134003 184.956039,342.069336 
	C179.976791,338.911346 176.223816,334.459137 171.986633,330.514374 
	C169.419785,328.124664 167.326157,325.618988 166.401337,322.025391 
	C165.512985,318.573517 162.301117,316.567078 160.060776,313.947998 
	C157.621384,311.096191 154.600037,308.468842 154.925430,303.994568 
	C155.090469,301.725189 152.968445,300.426483 151.483154,299.017761 
	C148.297836,295.996643 147.674805,291.666809 145.714325,288.159698 
	C141.910553,281.355133 142.957291,273.916290 140.927185,267.021454 
	C138.920105,260.204834 138.405426,253.731445 142.485031,247.490219 
	C143.092682,246.560593 144.084671,245.380249 143.908218,244.518799 
	C142.388077,237.097107 149.278305,232.846115 150.551071,226.510254 
	C150.667023,225.933105 151.427734,225.385086 152.011353,225.018051 
	C157.005173,221.877365 158.876648,216.957001 160.031998,211.506790 
	C161.143387,206.263931 162.590225,205.610062 168.006317,206.459747 
	C175.944977,207.705200 183.967178,208.025131 192.000000,208.000000 
"/>
<path fill="none" opacity="1.000000" stroke="#000000" stroke-linecap="round" stroke-linejoin="round" stroke-width="3.000000"
	d="
M194.000000,187.000000 
	C188.396912,176.174133 179.918259,167.464844 172.357483,158.115250 
	C170.170792,155.411240 165.895432,156.585999 162.500000,156.500000 
"/>
<path fill="none" opacity="1.000000" stroke="#000000" stroke-linecap="round" stroke-linejoin="round" stroke-width="3.000000"
	d="
M235.000000,387.000000 
	C236.777939,392.333344 236.201248,397.640625 235.028625,403.006256 
	C233.376160,410.567505 231.648972,418.085266 228.000000,425.000000 
"/>
<path fill="none" opacity="1.000000" stroke="#000000" stroke-linecap="round" stroke-linejoin="round" stroke-width="7.000000"
	d="
M114.500000,191.500000 
	C120.185249,195.489578 127.223137,196.607147 133.066223,200.397919 
	C136.619141,202.702896 140.536942,204.499237 143.992142,207.010818 
	C148.980988,210.637146 154.526703,209.453094 160.000000,209.000000 
"/>
<path fill="none" opacity="1.000000" stroke="#000000" stroke-linecap="round" stroke-linejoin="round" stroke-width="3.000000"
	d="
M206.000000,363.000000 
	C200.749237,371.444122 197.631943,380.845184 194.096039,390.036957 
	C193.131927,392.543213 193.059143,395.534271 195.000000,398.000000 
"/>
<path fill="none" opacity="1.000000" stroke="#000000" stroke-linecap="round" stroke-linejoin="round" stroke-width="3.000000"
	d="
M320.500000,218.000000 
	C317.425690,218.054092 314.271362,217.628143 310.974152,219.667953 
	C311.817566,231.150574 310.384857,242.623581 308.000000,254.000000 
"/>
<path fill="none" opacity="1.000000" stroke="#000000" stroke-linecap="round" stroke-linejoin="round" stroke-width="3.000000"
	d="
M185.500000,323.000000 
	C188.095016,325.796478 191.533493,327.417725 192.868790,331.889893 
	C193.808853,335.038391 197.978195,336.905884 202.508316,336.643555 
	C210.493256,336.181183 218.191483,334.333282 226.000000,333.000000 
"/>
<path fill="none" opacity="1.000000" stroke="#000000" stroke-linecap="round" stroke-linejoin="round" stroke-width="3.000000"
	d="
M386.000000,258.000000 
	C379.241730,260.602356 372.040161,260.911224 364.991974,261.945374 
	C360.702087,262.574799 356.333344,262.666656 352.000000,263.000000 
"/>
<path fill="none" opacity="1.000000" stroke="#000000" stroke-linecap="round" stroke-linejoin="round" stroke-width="18.000000"
	d="
M224.500000,347.500000 
	C226.476120,353.749695 229.661377,359.409088 232.985641,365.008514 
	C234.240768,367.122650 235.297134,369.353851 236.509796,371.494446 
	C237.815643,373.799469 237.263184,375.505951 235.564590,377.553589 
	C230.087860,384.155701 223.315201,389.321564 217.133331,395.141632 
	C212.104019,399.876648 206.424500,401.697540 200.003311,402.525696 
	C198.813446,402.679199 197.328247,402.814209 196.554703,403.556976 
	C191.373779,408.531921 184.600433,410.671783 178.508286,414.015076 
	C178.111496,414.232819 177.842911,414.947266 177.498596,414.959015 
	C168.777405,415.256683 165.598694,423.473755 159.509567,427.514404 
	C155.934128,429.887024 154.216843,433.549286 153.000000,437.500000 
"/>
<path fill="none" opacity="1.000000" stroke="#000000" stroke-linecap="round" stroke-linejoin="round" stroke-width="3.000000"
	d="
M228.000000,175.500000 
	C227.402405,180.533844 222.755508,181.764053 219.430298,182.769485 
	C210.480652,185.475540 206.128098,191.511902 203.968735,199.992035 
	C202.811447,204.536865 201.333344,209.000000 200.000000,213.500000 
"/>
<path fill="none" opacity="1.000000" stroke="#000000" stroke-linecap="round" stroke-linejoin="round" stroke-width="4.000000"
	d="
M253.500000,380.500000 
	C250.266373,389.764893 250.461884,399.389374 250.495636,409.000031 
	C250.518463,415.499939 250.500000,422.000000 250.500000,428.500000 
"/>
<path fill="none" opacity="1.000000" stroke="#000000" stroke-linecap="round" stroke-linejoin="round" stroke-width="3.000000"
	d="
M415.000000,215.500000 
	C411.679871,209.193268 408.377258,207.643463 402.595703,211.157471 
	C398.536163,213.624878 394.485504,211.646698 390.451263,212.834442 
	C382.458588,215.187637 374.186707,216.592499 366.500000,220.000000 
"/>
<path fill="none" opacity="1.000000" stroke="#000000" stroke-linecap="round" stroke-linejoin="round" stroke-width="3.000000"
	d="
M216.000000,254.000000 
	C208.564758,255.697571 201.345032,258.602234 193.499496,258.006653 
	C192.836639,257.956329 192.076660,258.209778 191.513641,257.968201 
	C184.335892,254.888306 179.028152,259.090454 173.485657,262.476501 
	C172.926025,262.818390 172.166672,262.833313 171.500000,263.000000 
"/>
<path fill="none" opacity="1.000000" stroke="#000000" stroke-linecap="round" stroke-linejoin="round" stroke-width="3.000000"
	d="
M238.000000,390.500000 
	C241.533157,395.112640 239.038986,400.245636 238.745956,404.984283 
	C238.512955,408.751770 237.758423,412.683563 237.106537,416.518097 
	C236.804672,418.293732 236.962433,420.078888 238.220840,422.168152 
	C239.865646,424.898834 239.158829,428.906769 237.418991,431.953735 
	C236.276474,433.954620 234.357437,435.512115 232.978409,437.053345 
	C230.335159,436.654388 228.167587,436.327179 226.000000,436.000000 
"/>
<path fill="none" opacity="1.000000" stroke="#000000" stroke-linecap="round" stroke-linejoin="round" stroke-width="8.000000"
	d="
M120.500000,228.500000 
	C121.839394,231.534134 121.363968,234.936096 122.150757,237.960785 
	C124.410988,246.649857 128.720306,253.923050 138.500000,256.000000 
"/>
<path fill="none" opacity="1.000000" stroke="#000000" stroke-linecap="round" stroke-linejoin="round" stroke-width="3.000000"
	d="
M185.000000,191.500000 
	C182.000000,187.666672 178.856552,183.935150 176.042099,179.970123 
	C173.454376,176.324554 169.803070,177.644867 166.498413,177.569641 
	C164.507034,177.524292 162.500000,178.166672 160.500000,178.500015 
"/>
<path fill="none" opacity="1.000000" stroke="#000000" stroke-linecap="round" stroke-linejoin="round" stroke-width="3.000000"
	d="
M242.000000,394.500000 
	C243.288971,401.203064 242.081818,407.877075 241.292892,414.475250 
	C241.044540,416.552399 242.326797,419.254913 240.000000,421.000000 
"/>
<path fill="none" opacity="1.000000" stroke="#000000" stroke-linecap="round" stroke-linejoin="round" stroke-width="6.000000"
	d="
M218.500000,310.000000 
	C209.765961,311.110718 201.338684,313.993866 192.500000,314.500000 
"/>
<path fill="none" opacity="1.000000" stroke="#000000" stroke-linecap="round" stroke-linejoin="round" stroke-width="3.000000"
	d="
M203.500000,230.999985 
	C200.500000,231.833313 197.485458,232.617966 194.502792,233.509323 
	C186.271896,235.969101 180.028687,234.406570 175.064774,227.950195 
	C172.069534,224.054413 168.028107,220.574600 168.000000,215.000000 
"/>
<path fill="none" opacity="1.000000" stroke="#000000" stroke-linecap="round" stroke-linejoin="round" stroke-width="6.000000"
	d="
M168.000000,117.500000 
	C163.743744,118.500908 162.059052,120.955399 162.387329,125.508125 
	C162.738083,130.372574 160.441208,135.445618 163.933578,140.050385 
	C164.415054,140.685211 164.346283,142.174561 163.944321,142.971924 
	C161.141800,148.531311 162.725891,154.792007 160.997864,160.499359 
	C159.563095,165.238052 161.925186,170.365829 159.500000,175.000000 
"/>
<path fill="none" opacity="1.000000" stroke="#000000" stroke-linecap="round" stroke-linejoin="round" stroke-width="3.000000"
	d="
M423.500000,240.000000 
	C420.132874,237.261032 415.758636,236.438385 411.900726,235.352859 
	C408.720337,234.457962 404.656891,236.626266 401.002533,237.510498 
	C396.677856,238.556900 392.374268,239.776001 388.548187,242.080017 
	C387.402893,242.769730 386.833344,242.071365 385.976044,241.952103 
	C386.727051,239.160675 387.488525,236.330338 388.250031,233.500000 
"/>
<path fill="none" opacity="1.000000" stroke="#000000" stroke-linecap="round" stroke-linejoin="round" stroke-width="3.000000"
	d="
M176.500000,280.500000 
	C171.445572,272.291626 163.210892,267.115173 156.780960,260.203796 
	C155.062408,258.356537 150.680801,258.852448 147.495453,258.547455 
	C145.018173,258.310242 142.500000,258.500000 140.000000,258.500000 
"/>
<path fill="none" opacity="1.000000" stroke="#000000" stroke-linecap="round" stroke-linejoin="round" stroke-width="3.000000"
	d="
M123.000000,145.500000 
	C122.666672,145.833328 122.133026,146.114059 122.029610,146.507782 
	C120.006866,154.208359 117.821457,161.971680 119.598145,169.978226 
	C120.416054,173.664093 123.140472,176.588135 126.047707,178.941055 
	C128.999527,181.330032 129.325958,183.645432 126.650879,186.347778 
	C130.650986,191.569809 136.320450,194.192291 141.073151,197.906387 
	C143.175735,199.549484 145.806274,198.310593 148.000000,197.000000 
"/>
<path fill="none" opacity="1.000000" stroke="#000000" stroke-linecap="round" stroke-linejoin="round" stroke-width="6.000000"
	d="
M216.500000,295.000000 
	C209.303375,292.619873 202.056671,290.439941 194.500000,289.500000 
"/>
<path fill="none" opacity="1.000000" stroke="#000000" stroke-linecap="round" stroke-linejoin="round" stroke-width="3.000000"
	d="
M406.000000,209.000000 
	C404.217712,206.923218 406.934143,203.098343 402.084106,201.706879 
	C397.747528,200.462723 394.299377,200.730225 391.077484,203.105133 
	C388.964172,204.662872 386.832214,203.591812 385.056824,204.173477 
	C378.678009,206.263412 372.327393,208.660233 367.026062,213.031616 
	C366.821533,213.200241 367.000000,213.833328 367.000000,214.250000 
"/>
<path fill="none" opacity="1.000000" stroke="#000000" stroke-linecap="round" stroke-linejoin="round" stroke-width="7.000000"
	d="
M388.500000,191.000015 
	C380.333344,196.333359 372.168274,201.669144 363.998901,206.998337 
	C361.931519,208.346954 360.000580,209.953430 357.500000,210.500000 
"/>
<path fill="none" opacity="1.000000" stroke="#000000" stroke-linecap="round" stroke-linejoin="round" stroke-width="3.000000"
	d="
M216.000000,363.500000 
	C215.311951,368.826202 212.732300,373.559448 210.786316,378.414337 
	C209.661942,381.219452 209.795425,383.166656 211.000000,385.500000 
"/>
<path fill="none" opacity="1.000000" stroke="#000000" stroke-linecap="round" stroke-linejoin="round" stroke-width="3.000000"
	d="
M140.000000,163.500000 
	C141.002274,161.833328 140.636673,160.110107 139.977203,158.509384 
	C136.327209,149.649734 132.508118,140.850204 132.436813,131.000458 
	C132.434372,130.663452 131.500092,130.333191 131.000061,129.999908 
	C126.551010,134.183899 124.145615,143.667892 125.976227,149.008148 
	C128.586533,156.622925 132.131210,163.875732 136.728577,170.337372 
	C138.948837,173.457962 138.505737,177.106750 141.177887,180.271942 
	C144.929688,184.715973 148.580994,186.549805 154.002670,186.027664 
	C155.819138,185.852722 157.666672,186.000000 159.500000,186.000000 
"/>
<path fill="none" opacity="1.000000" stroke="#000000" stroke-linecap="round" stroke-linejoin="round" stroke-width="3.000000"
	d="
M286.500000,216.000000 
	C287.356079,223.261276 288.888153,230.569717 285.000000,237.500000 
"/>
<path fill="none" opacity="1.000000" stroke="#000000" stroke-linecap="round" stroke-linejoin="round" stroke-width="3.000000"
	d="
M376.500000,225.000000 
	C377.338226,226.482925 378.774933,226.035080 379.998901,225.977112 
	C387.829071,225.606247 395.649200,226.306335 403.516479,225.721786 
	C408.167816,225.376205 413.256073,226.142395 417.500000,229.000000 
"/>
<path fill="none" opacity="1.000000" stroke="#000000" stroke-linecap="round" stroke-linejoin="round" stroke-width="3.000000"
	d="
M173.000000,296.000000 
	C179.333344,301.833313 185.666672,307.666656 192.000000,313.500000 
"/>
<path fill="none" opacity="1.000000" stroke="#000000" stroke-linecap="round" stroke-linejoin="round" stroke-width="3.000000"
	d="
M144.500000,245.000000 
	C145.666672,245.500000 146.823883,246.406265 148.001541,246.433640 
	C155.299927,246.603363 160.201843,250.745926 164.500000,256.000000 
"/>
<path fill="none" opacity="1.000000" stroke="#000000" stroke-linecap="round" stroke-linejoin="round" stroke-width="3.000000"
	d="
M369.500000,249.000000 
	C365.934052,251.736252 361.452881,251.133362 357.459351,251.726196 
	C354.719391,252.132935 352.411072,254.303497 349.500000,253.500000 
"/>
<path fill="none" opacity="1.000000" stroke="#000000" stroke-linecap="round" stroke-linejoin="round" stroke-width="3.000000"
	d="
M340.500000,226.000000 
	C334.265198,223.645401 328.161224,225.780670 321.995209,226.456314 
	C318.371552,226.853378 316.857483,229.561050 315.000000,232.000000 
"/>
<path fill="none" opacity="1.000000" stroke="#000000" stroke-linecap="round" stroke-linejoin="round" stroke-width="3.000000"
	d="
M404.500000,206.500000 
	C400.585907,204.809143 396.889313,207.198334 392.998749,207.169785 
	C385.652008,207.115829 379.316284,211.279587 372.482666,213.445267 
	C366.901184,215.214096 361.166656,216.499985 355.500000,217.999985 
"/>
<path fill="none" opacity="1.000000" stroke="#000000" stroke-linecap="round" stroke-linejoin="round" stroke-width="3.000000"
	d="
M120.500000,166.500000 
	C123.897964,168.102036 126.058563,170.722656 128.127289,173.917572 
	C132.639267,180.885818 139.308472,186.023483 145.000000,192.000000 
"/>
<path fill="none" opacity="1.000000" stroke="#000000" stroke-linecap="round" stroke-linejoin="round" stroke-width="3.000000"
	d="
M129.000000,184.500000 
	C132.951736,185.767868 135.307938,189.202393 138.506821,191.490463 
	C144.212601,195.571701 150.412109,197.651352 157.505630,196.024521 
	C158.297318,195.842972 159.166672,196.000000 160.000000,196.000000 
"/>
<path fill="none" opacity="1.000000" stroke="#000000" stroke-linecap="round" stroke-linejoin="round" stroke-width="3.000000"
	d="
M261.500000,382.000000 
	C258.480011,394.219208 259.721832,405.686340 267.343262,416.245514 
	C272.064941,408.850433 269.609039,400.915955 261.000000,395.000000 
"/>
<path fill="none" opacity="1.000000" stroke="#000000" stroke-linecap="round" stroke-linejoin="round" stroke-width="3.000000"
	d="
M396.000000,200.000000 
	C396.576263,195.629150 394.463745,195.663422 390.974548,196.375305 
	C387.589417,197.065948 384.150604,199.995956 380.500000,197.000000 
"/>
<path fill="none" opacity="1.000000" stroke="#000000" stroke-linecap="round" stroke-linejoin="round" stroke-width="3.000000"
	d="
M142.500000,151.500000 
	C141.266464,155.074127 144.112335,157.598114 145.202271,160.421936 
	C146.448456,163.650558 146.716980,166.423126 145.500000,169.500000 
"/>
<path fill="none" opacity="1.000000" stroke="#000000" stroke-linecap="round" stroke-linejoin="round" stroke-width="3.000000"
	d="
M213.000000,400.500000 
	C214.410095,403.576965 216.318115,406.431732 216.534515,409.997894 
	C216.763382,413.769867 216.431381,416.885101 212.553665,419.094177 
	C208.017563,421.678375 206.533936,427.275879 202.360443,430.522369 
	C201.083267,430.458435 200.992386,428.428070 198.171280,428.985260 
	C195.509079,432.879822 188.146790,434.934570 189.500000,443.000000 
"/>
<path fill="none" opacity="1.000000" stroke="#000000" stroke-linecap="round" stroke-linejoin="round" stroke-width="6.000000"
	d="
M168.000000,418.000000 
	C164.270340,415.449005 160.629044,415.310425 156.453812,417.408081 
	C151.518692,419.887543 145.670959,418.764343 140.431488,420.825867 
	C137.847275,421.842590 135.392441,422.408539 134.000000,425.000000 
"/>
<path fill="none" opacity="1.000000" stroke="#000000" stroke-linecap="round" stroke-linejoin="round" stroke-width="3.000000"
	d="
M267.000000,322.500000 
	C267.666656,323.833344 268.526550,325.106567 268.963501,326.511353 
	C270.236694,330.604675 272.017883,334.829071 267.983063,338.481293 
	C267.103943,339.277008 267.799652,340.193268 267.374146,341.027222 
	C274.296173,346.215820 280.404633,352.341187 288.000000,356.500000 
"/>
<path fill="none" opacity="1.000000" stroke="#000000" stroke-linecap="round" stroke-linejoin="round" stroke-width="10.000000"
	d="
M207.500000,402.000000 
	C207.847473,411.639221 201.964294,419.515045 200.000000,428.500000 
"/>
<path fill="none" opacity="1.000000" stroke="#000000" stroke-linecap="round" stroke-linejoin="round" stroke-width="3.000000"
	d="
M225.000000,398.000000 
	C229.625122,403.065094 229.257645,409.733093 225.650116,413.680237 
	C221.561325,418.153900 219.790817,423.926453 215.389542,428.023834 
	C214.083267,427.958435 213.992386,425.928070 211.994247,426.322723 
	C208.865448,428.888824 207.228378,433.675293 203.000000,436.000000 
"/>
<path fill="none" opacity="1.000000" stroke="#000000" stroke-linecap="round" stroke-linejoin="round" stroke-width="3.000000"
	d="
M378.500000,186.500000 
	C370.214966,190.262711 364.938995,197.564850 358.492645,203.492020 
	C357.442749,204.457382 356.825256,205.731018 357.058197,206.989227 
	C357.707214,210.494690 355.672272,212.903931 354.000000,215.500000 
"/>
<path fill="none" opacity="1.000000" stroke="#000000" stroke-linecap="round" stroke-linejoin="round" stroke-width="3.000000"
	d="
M170.000000,86.500000 
	C168.484818,92.123878 168.200485,98.037369 166.000000,103.500000 
"/>
<path fill="none" opacity="1.000000" stroke="#000000" stroke-linecap="round" stroke-linejoin="round" stroke-width="3.000000"
	d="
M142.500000,209.000000 
	C138.401505,211.715973 134.787170,208.425751 131.034088,207.796616 
	C129.212372,207.491241 127.526512,206.270844 125.500000,207.000000 
"/>
<path fill="none" opacity="1.000000" stroke="#000000" stroke-linecap="round" stroke-linejoin="round" stroke-width="3.000000"
	d="
M251.000000,344.000000 
	C253.706329,349.555573 255.215515,355.949127 262.093719,358.687531 
	C258.080261,364.334747 257.458832,370.548981 256.000000,376.500000 
"/>
<path fill="none" opacity="1.000000" stroke="#000000" stroke-linecap="round" stroke-linejoin="round" stroke-width="7.000000"
	d="
M156.000000,95.500000 
	C151.795715,105.539749 154.430420,115.803726 155.378540,126.000000 
	C147.809311,126.000000 146.944061,125.190071 147.022614,118.000244 
	C147.064514,114.164749 147.383347,110.319046 144.000000,107.500000 
"/>
<path fill="none" opacity="1.000000" stroke="#000000" stroke-linecap="round" stroke-linejoin="round" stroke-width="3.000000"
	d="
M278.000000,217.000000 
	C278.023346,222.186661 277.700531,227.395660 279.000000,232.500000 
"/>
<path fill="none" opacity="1.000000" stroke="#000000" stroke-linecap="round" stroke-linejoin="round" stroke-width="3.000000"
	d="
M154.000000,127.000000 
	C153.111572,128.243118 153.380569,129.609818 153.479141,131.001480 
	C153.738541,134.663773 154.483612,138.147491 153.763916,142.048691 
	C152.929886,146.569565 156.903198,148.830338 161.000000,150.000000 
"/>
<path fill="none" opacity="1.000000" stroke="#000000" stroke-linecap="round" stroke-linejoin="round" stroke-width="3.000000"
	d="
M155.500000,303.000000 
	C159.407745,302.573242 162.444778,303.227905 165.179565,306.864990 
	C167.664368,310.169678 171.666656,312.333344 174.999985,315.000000 
"/>
<path fill="none" opacity="1.000000" stroke="#000000" stroke-linecap="round" stroke-linejoin="round" stroke-width="20.000000"
	d="
M238.000000,375.000000 
	C242.123810,375.212219 245.731705,377.083435 249.521301,378.440491 
	C253.088608,379.717987 256.801819,380.645935 260.511322,381.447571 
	C262.895233,381.962769 265.221924,381.600311 267.017334,379.514923 
	C269.491364,376.641357 272.579376,375.073273 276.502441,375.476074 
	C277.168274,375.544434 278.136993,375.875793 278.477386,374.991302 
	C280.720612,369.161835 287.026398,370.681702 291.003693,368.005463 
	C294.442047,365.691895 297.633667,368.993408 301.000000,368.500000 
"/>
<path fill="none" opacity="1.000000" stroke="#000000" stroke-linecap="round" stroke-linejoin="round" stroke-width="3.000000"
	d="
M177.000000,416.000000 
	C177.000000,417.666656 177.134216,419.346619 176.970901,420.997131 
	C176.669281,424.045502 175.980453,426.472961 172.583954,428.168213 
	C167.994186,430.459015 163.799957,433.477692 158.500000,434.000000 
"/>
<path fill="none" opacity="1.000000" stroke="#000000" stroke-linecap="round" stroke-linejoin="round" stroke-width="3.000000"
	d="
M147.500000,234.500000 
	C156.499649,235.603134 163.172485,240.342636 168.558075,247.456024 
	C171.396225,251.204742 174.833328,254.500000 178.000000,258.000000 
"/>
<path fill="none" opacity="1.000000" stroke="#000000" stroke-linecap="round" stroke-linejoin="round" stroke-width="3.000000"
	d="
M431.500000,243.500000 
	C427.000000,244.333328 422.500275,245.168213 417.999878,245.999390 
	C415.486969,246.463501 413.643768,244.753571 411.485901,244.042847 
	C408.481720,243.053375 405.026428,243.420715 402.500000,241.000000 
"/>
<path fill="none" opacity="1.000000" stroke="#000000" stroke-linecap="round" stroke-linejoin="round" stroke-width="3.000000"
	d="
M145.000000,124.000000 
	C144.461395,131.926163 146.994370,139.385193 148.504974,146.999008 
	C148.803909,148.505829 149.427078,149.995132 149.455200,151.500839 
	C149.581268,158.245621 150.087723,159.018280 156.501068,160.996552 
	C157.660263,161.354111 158.833328,161.666672 160.000000,162.000000 
"/>
<path fill="none" opacity="1.000000" stroke="#000000" stroke-linecap="round" stroke-linejoin="round" stroke-width="3.000000"
	d="
M391.500000,231.000000 
	C394.153564,229.138718 396.761292,229.171570 400.040466,229.782883 
	C404.430939,230.601349 408.962738,230.737976 413.250000,232.250000 
"/>
<path fill="none" opacity="1.000000" stroke="#000000" stroke-linecap="round" stroke-linejoin="round" stroke-width="3.000000"
	d="
M232.500000,25.000000 
	C227.577393,26.049122 222.657608,27.104635 219.000000,31.000000 
"/>
<path fill="none" opacity="1.000000" stroke="#000000" stroke-linecap="round" stroke-linejoin="round" stroke-width="6.000000"
	d="
M156.500000,270.500000 
	C151.810303,270.489136 147.228958,268.961151 142.500000,269.500000 
"/>
<path fill="none" opacity="1.000000" stroke="#000000" stroke-linecap="round" stroke-linejoin="round" stroke-width="3.000000"
	d="
M338.500000,184.500000 
	C338.359955,189.205231 341.322174,194.242859 337.000000,198.500000 
"/>
<path fill="none" opacity="1.000000" stroke="#000000" stroke-linecap="round" stroke-linejoin="round" stroke-width="3.000000"
	d="
M336.500000,214.000000 
	C332.945526,214.380661 329.674255,216.109177 325.999329,216.031403 
	C321.315277,215.932220 320.834320,219.713577 320.041901,223.010071 
	C319.776794,224.113022 320.000000,225.333328 320.000000,226.500000 
"/>
<path fill="none" opacity="1.000000" stroke="#000000" stroke-linecap="round" stroke-linejoin="round" stroke-width="3.000000"
	d="
M291.000000,392.000000 
	C283.160858,390.756805 276.367371,386.152527 268.500000,385.000000 
"/>
<path fill="none" opacity="1.000000" stroke="#000000" stroke-linecap="round" stroke-linejoin="round" stroke-width="3.000000"
	d="
M224.500000,425.000000 
	C221.383484,426.606781 220.683853,430.133636 218.587952,432.575500 
	C217.362701,434.003052 216.428696,435.513763 214.500000,436.000000 
"/>
<path fill="none" opacity="1.000000" stroke="#000000" stroke-linecap="round" stroke-linejoin="round" stroke-width="3.000000"
	d="
M150.500000,419.500000 
	C150.134750,420.890076 149.463211,422.016693 148.000687,422.502075 
	C143.498764,423.996277 139.000000,425.499969 134.500000,426.999969 
"/>
<path fill="none" opacity="1.000000" stroke="#000000" stroke-linecap="round" stroke-linejoin="round" stroke-width="6.000000"
	d="
M169.500000,81.500000 
	C176.624100,90.371162 174.803497,99.345848 170.063141,108.532578 
	C168.408081,111.740097 167.880157,115.285721 168.955490,119.012840 
	C170.746582,125.220703 169.710999,131.227142 167.000000,137.000000 
"/>
<path fill="none" opacity="1.000000" stroke="#000000" stroke-linecap="round" stroke-linejoin="round" stroke-width="6.000000"
	d="
M156.500000,93.500000 
	C161.921265,99.135239 160.078079,105.943451 159.440231,112.494179 
	C159.239578,114.554955 156.801956,114.797470 155.500000,116.000000 
"/>
<path fill="none" opacity="1.000000" stroke="#000000" stroke-linecap="round" stroke-linejoin="round" stroke-width="3.000000"
	d="
M254.000000,397.500000 
	C256.523407,401.658875 255.461868,407.012726 258.500000,411.000000 
"/>
<path fill="none" opacity="1.000000" stroke="#000000" stroke-linecap="round" stroke-linejoin="round" stroke-width="3.000000"
	d="
M126.000000,143.000000 
	C128.654007,144.177216 130.401825,145.459061 131.203659,148.953262 
	C133.532196,159.100494 140.230103,166.508316 148.522705,172.468399 
	C151.443481,174.567642 154.962250,175.181396 158.500000,175.500000 
"/>
<path fill="none" opacity="1.000000" stroke="#000000" stroke-linecap="round" stroke-linejoin="round" stroke-width="3.000000"
	d="
M133.000000,131.000000 
	C135.496277,132.340302 136.997360,135.265488 140.504974,135.120224 
	C142.045212,135.056458 142.484863,136.619507 142.655350,138.485809 
	C142.963867,141.863327 144.279022,145.264282 144.699966,148.538574 
	C145.096619,151.623810 146.300613,153.102417 148.500000,154.500000 
"/>
<path fill="none" opacity="1.000000" stroke="#000000" stroke-linecap="round" stroke-linejoin="round" stroke-width="3.000000"
	d="
M149.500000,126.500000 
	C150.180023,131.939789 148.228409,137.955246 153.000000,142.500000 
"/>
<path fill="none" opacity="1.000000" stroke="#000000" stroke-linecap="round" stroke-linejoin="round" stroke-width="3.000000"
	d="
M136.999985,135.000000 
	C138.166656,139.500000 139.299637,144.009125 140.515442,148.495819 
	C141.053177,150.480316 142.452103,151.309982 144.500000,151.000000 
"/>
<path fill="none" opacity="1.000000" stroke="#000000" stroke-linecap="round" stroke-linejoin="round" stroke-width="3.000000"
	d="
M253.999985,352.500000 
	C251.999985,356.833313 249.999985,361.166656 247.999985,365.500000 
"/>
<path fill="none" opacity="1.000000" stroke="#000000" stroke-linecap="round" stroke-linejoin="round" stroke-width="3.000000"
	d="
M148.000000,214.000000 
	C145.742493,215.228287 143.407455,215.392929 141.000412,214.498901 
	C138.998413,213.755325 137.000000,213.751053 135.000000,214.500000 
"/>
<path fill="none" opacity="1.000000" stroke="#000000" stroke-linecap="round" stroke-linejoin="round" stroke-width="3.000000"
	d="
M117.000000,179.500000 
	C114.105225,180.448227 114.319115,182.651688 115.583694,184.440842 
	C117.058578,186.527527 118.921509,188.562546 121.067276,189.891373 
	C123.322250,191.287811 122.911858,193.101929 123.000000,195.000000 
"/>
<path fill="none" opacity="1.000000" stroke="#000000" stroke-linecap="round" stroke-linejoin="round" stroke-width="5.000000"
	d="
M409.500000,221.000000 
	C409.146942,216.599701 413.269806,217.082199 415.408173,215.562805 
	C419.712463,217.883560 424.550415,219.760773 424.000000,226.000000 
"/>
<path fill="none" opacity="1.000000" stroke="#000000" stroke-linecap="round" stroke-linejoin="round" stroke-width="3.000000"
	d="
M201.500000,418.500000 
	C200.333328,418.500000 198.740967,418.002136 198.067032,418.578400 
	C192.424225,423.403351 183.647873,422.354095 178.947678,428.962799 
	C177.504318,430.992188 173.673599,431.255188 174.500000,435.000000 
"/>
<path fill="none" opacity="1.000000" stroke="#000000" stroke-linecap="round" stroke-linejoin="round" stroke-width="4.000000"
	d="
M225.499985,415.500000 
	C225.666656,416.000000 225.958939,416.494904 225.979523,417.000824 
	C226.109329,420.191528 225.302872,422.985413 226.611710,426.639099 
	C229.720032,435.316132 222.514160,441.760376 213.500000,439.500000 
"/>
<path fill="none" opacity="1.000000" stroke="#000000" stroke-linecap="round" stroke-linejoin="round" stroke-width="3.000000"
	d="
M360.000000,184.000000 
	C360.000000,182.160934 360.000000,180.321854 360.000000,178.000000 
	C357.358154,178.000000 355.178375,177.965179 353.000183,178.008621 
	C350.143127,178.065582 347.520721,177.808197 344.956665,176.063690 
	C338.501190,171.671509 327.491394,172.729767 321.500000,178.000000 
"/>
<path fill="none" opacity="1.000000" stroke="#000000" stroke-linecap="round" stroke-linejoin="round" stroke-width="3.000000"
	d="
M125.500000,158.000000 
	C125.500000,158.166672 125.455475,158.348511 125.506386,158.497818 
	C127.957558,165.686554 130.308472,172.947830 138.000000,176.500000 
"/>
<path fill="none" opacity="1.000000" stroke="#000000" stroke-linecap="round" stroke-linejoin="round" stroke-width="3.000000"
	d="
M356.500000,186.500000 
	C348.976379,188.618134 346.767731,193.173492 348.500000,203.000000 
"/>
<path fill="none" opacity="1.000000" stroke="#000000" stroke-linecap="round" stroke-linejoin="round" stroke-width="9.000000"
	d="
M215.000000,428.500000 
	C214.500000,430.166656 213.677048,431.810608 213.557877,433.504059 
	C213.123581,439.676300 208.708023,443.179932 202.504425,441.977173 
	C201.639008,441.809357 200.833328,441.333344 200.000000,441.000000 
"/>
<path fill="none" opacity="1.000000" stroke="#000000" stroke-linecap="round" stroke-linejoin="round" stroke-width="5.000000"
	d="
M143.500000,239.000000 
	C139.415222,237.643082 135.190125,238.040024 131.000000,238.000000 
"/>
<path fill="none" opacity="1.000000" stroke="#000000" stroke-linecap="round" stroke-linejoin="round" stroke-width="3.000000"
	d="
M389.500000,219.000000 
	C395.983734,215.007828 402.714722,215.961182 409.500000,218.000000 
"/>
<path fill="none" opacity="1.000000" stroke="#000000" stroke-linecap="round" stroke-linejoin="round" stroke-width="3.000000"
	d="
M160.000000,294.000000 
	C161.919724,295.763000 164.616455,296.593567 165.543640,299.080261 
	C168.614624,298.588593 169.381516,295.405609 172.000000,295.000000 
"/>
<path fill="none" opacity="1.000000" stroke="#000000" stroke-linecap="round" stroke-linejoin="round" stroke-width="3.000000"
	d="
M419.500000,243.000000 
	C415.921692,240.321259 410.885651,241.141129 407.500000,238.000000 
"/>
<path fill="none" opacity="1.000000" stroke="#000000" stroke-linecap="round" stroke-linejoin="round" stroke-width="3.000000"
	d="
M207.500000,322.000000 
	C206.666656,322.333313 205.853485,322.734558 204.996704,322.988892 
	C199.796387,324.532501 194.804886,325.426300 190.875046,320.092041 
	C190.360016,319.392944 189.562347,317.823151 188.000000,318.000000 
"/>
<path fill="none" opacity="1.000000" stroke="#000000" stroke-linecap="round" stroke-linejoin="round" stroke-width="3.000000"
	d="
M199.000000,422.000000 
	C197.000000,424.000000 194.903244,425.913849 193.025742,428.022919 
	C190.913956,430.395081 189.000000,430.139771 186.986252,427.977600 
	C182.857910,430.540955 179.705139,434.442963 174.549713,435.703369 
	C171.942215,436.340881 172.348541,439.993530 172.000000,442.500000 
"/>
<path fill="none" opacity="1.000000" stroke="#000000" stroke-linecap="round" stroke-linejoin="round" stroke-width="3.000000"
	d="
M279.500000,404.000000 
	C279.189697,406.761536 277.364105,408.765381 276.277710,410.898926 
	C273.639313,411.554688 273.176086,408.314453 271.000000,408.500000 
"/>
<path fill="none" opacity="1.000000" stroke="#000000" stroke-linecap="round" stroke-linejoin="round" stroke-width="3.000000"
	d="
M178.000000,270.500000 
	C183.056137,276.285217 188.980774,281.326019 193.000000,288.000000 
"/>
<path fill="none" opacity="1.000000" stroke="#000000" stroke-linecap="round" stroke-linejoin="round" stroke-width="3.000000"
	d="
M261.000000,406.500000 
	C257.361725,411.889771 259.860687,417.821045 259.500000,423.500000 
"/>
<path fill="none" opacity="1.000000" stroke="#000000" stroke-linecap="round" stroke-linejoin="round" stroke-width="3.000000"
	d="
M310.500000,220.000000 
	C308.154755,220.000000 305.809509,220.000000 303.347839,220.000000 
	C302.512146,224.805191 301.756073,229.152588 301.000000,233.500000 
"/>
<path fill="none" opacity="1.000000" stroke="#000000" stroke-linecap="round" stroke-linejoin="round" stroke-width="3.000000"
	d="
M235.000000,422.500000 
	C232.550491,426.275238 232.348557,431.174286 229.000000,434.500000 
"/>
<path fill="none" opacity="1.000000" stroke="#000000" stroke-linecap="round" stroke-linejoin="round" stroke-width="3.000000"
	d="
M121.000000,218.750000 
	C120.497490,215.835007 116.325539,215.366302 116.507782,211.181244 
	C122.681343,213.439682 130.043015,209.275635 135.124069,216.411667 
	C136.822174,218.796555 139.817337,220.444336 143.002274,220.986679 
	C145.202713,221.361374 146.992203,222.403198 148.500000,224.000000 
"/>
<path fill="none" opacity="1.000000" stroke="#000000" stroke-linecap="round" stroke-linejoin="round" stroke-width="3.000000"
	d="
M408.500000,250.000000 
	C411.608978,248.205322 414.398193,247.926117 417.582733,250.393204 
	C419.998901,252.265030 423.166656,253.166672 426.000000,254.500000 
"/>
<path fill="none" opacity="1.000000" stroke="#000000" stroke-linecap="round" stroke-linejoin="round" stroke-width="3.000000"
	d="
M118.000000,168.000000 
	C116.215332,168.744827 114.777725,170.391190 115.146423,171.965714 
	C115.762787,174.597855 116.436226,177.628128 118.573784,179.411560 
	C121.138634,181.551483 123.604324,184.035736 127.000000,185.000000 
"/>
<path fill="none" opacity="1.000000" stroke="#000000" stroke-linecap="round" stroke-linejoin="round" stroke-width="3.000000"
	d="
M113.500000,201.500000 
	C118.262321,204.479202 124.943703,204.867661 127.000000,211.500000 
"/>
<path fill="none" opacity="1.000000" stroke="#000000" stroke-linecap="round" stroke-linejoin="round" stroke-width="7.000000"
	d="
M349.000000,285.500000 
	C348.521362,289.630615 348.626343,293.533203 345.262482,297.238312 
	C342.902863,299.837311 343.006317,304.668335 341.997223,308.499268 
	C341.513184,310.336823 341.000000,312.166656 340.500000,314.000000 
"/>
<path fill="none" opacity="1.000000" stroke="#000000" stroke-linecap="round" stroke-linejoin="round" stroke-width="3.000000"
	d="
M138.000000,121.000000 
	C141.283875,122.112572 140.609283,125.138901 140.926804,127.509804 
	C141.255707,129.965759 141.000000,132.500000 141.000000,135.000000 
"/>
<path fill="none" opacity="1.000000" stroke="#000000" stroke-linecap="round" stroke-linejoin="round" stroke-width="3.000000"
	d="
M354.000000,199.000000 
	C361.584412,196.159836 364.572388,189.154144 368.799194,183.066757 
	C364.459381,182.098404 359.120575,184.583282 357.482819,187.991745 
	C355.781036,191.533417 352.950500,194.521637 353.294342,199.015732 
	C353.378906,200.121078 351.315765,201.672821 349.596008,202.666214 
	C347.677246,203.774597 346.500000,206.166672 345.000000,208.000000 
"/>
<path fill="none" opacity="1.000000" stroke="#000000" stroke-linecap="round" stroke-linejoin="round" stroke-width="3.000000"
	d="
M189.000000,430.500000 
	C186.422134,435.757202 181.202850,437.538818 176.500000,440.000000 
"/>
<path fill="none" opacity="1.000000" stroke="#000000" stroke-linecap="round" stroke-linejoin="round" stroke-width="3.000000"
	d="
M183.500000,322.000000 
	C181.169617,319.996552 178.839249,317.993134 176.449280,315.938477 
	C175.626053,316.967468 174.813019,317.983734 173.999985,319.000000 
"/>
<path fill="none" opacity="1.000000" stroke="#000000" stroke-linecap="round" stroke-linejoin="round" stroke-width="3.000000"
	d="
M351.000000,262.000000 
	C353.002289,266.033142 351.545288,270.343048 352.000000,274.500000 
"/>
<path fill="none" opacity="1.000000" stroke="#000000" stroke-linecap="round" stroke-linejoin="round" stroke-width="3.000000"
	d="
M288.000000,302.000000 
	C292.029633,306.212708 287.700562,309.698608 286.752319,313.424622 
	C288.389740,314.701172 289.876007,315.718933 291.750000,316.000000 
"/>
<path fill="none" opacity="1.000000" stroke="#000000" stroke-linecap="round" stroke-linejoin="round" stroke-width="8.000000"
	d="
M278.500000,376.000000 
	C282.377594,382.285065 288.865448,381.944122 295.000000,382.500000 
"/>
<path fill="none" opacity="1.000000" stroke="#000000" stroke-linecap="round" stroke-linejoin="round" stroke-width="3.000000"
	d="
M136.250000,218.000000 
	C132.952621,220.203690 128.788025,217.746078 125.500000,220.000000 
"/>
<path fill="none" opacity="1.000000" stroke="#000000" stroke-linecap="round" stroke-linejoin="round" stroke-width="3.000000"
	d="
M240.000000,192.000000 
	C232.779449,194.112778 228.698227,199.364883 226.000000,206.000000 
"/>
<path fill="none" opacity="1.000000" stroke="#000000" stroke-linecap="round" stroke-linejoin="round" stroke-width="3.000000"
	d="
M190.000015,273.500000 
	C191.681839,275.487183 193.363663,277.474335 195.139969,279.573151 
	C193.884552,280.410156 192.692276,281.205078 191.499985,281.999969 
"/>
<path fill="none" opacity="1.000000" stroke="#000000" stroke-linecap="round" stroke-linejoin="round" stroke-width="3.000000"
	d="
M291.000000,348.500000 
	C287.586761,354.983948 289.205139,361.059937 292.500000,367.000000 
"/>
<path fill="none" opacity="1.000000" stroke="#000000" stroke-linecap="round" stroke-linejoin="round" stroke-width="3.000000"
	d="
M342.500000,284.000000 
	C342.166656,287.333344 341.833344,290.666656 341.500000,294.000000 
"/>
<path fill="none" opacity="1.000000" stroke="#000000" stroke-linecap="round" stroke-linejoin="round" stroke-width="3.000000"
	d="
M128.000000,224.500000 
	C127.546654,222.334015 125.886742,220.749344 124.400650,219.632156 
	C122.250648,218.015839 119.382721,218.890076 117.596352,220.600616 
	C116.074394,222.057999 116.742737,224.080750 118.480171,225.523880 
	C119.103722,226.041794 119.500000,226.833328 120.000000,227.500000 
"/>
<path fill="none" opacity="1.000000" stroke="#000000" stroke-linecap="round" stroke-linejoin="round" stroke-width="3.000000"
	d="
M262.000000,360.500000 
	C267.804077,364.038513 270.568024,369.342224 271.000000,376.000000 
"/>
<path fill="none" opacity="1.000000" stroke="#000000" stroke-linecap="round" stroke-linejoin="round" stroke-width="3.000000"
	d="
M167.500000,235.000000 
	C166.423691,231.022324 163.720505,228.309967 160.500000,226.000000 
"/>
<path fill="none" opacity="1.000000" stroke="#000000" stroke-linecap="round" stroke-linejoin="round" stroke-width="3.000000"
	d="
M280.000000,395.500000 
	C276.684418,394.520325 274.438446,391.000336 270.500000,391.500000 
"/>
<path fill="none" opacity="1.000000" stroke="#000000" stroke-linecap="round" stroke-linejoin="round" stroke-width="3.000000"
	d="
M405.000000,224.750000 
	C405.757416,222.267838 407.298676,220.661423 409.980988,221.556961 
	C413.109344,222.601425 416.559906,222.305679 419.500000,224.000000 
"/>
<path fill="none" opacity="1.000000" stroke="#000000" stroke-linecap="round" stroke-linejoin="round" stroke-width="3.000000"
	d="
M343.500000,182.000000 
	C338.333344,183.333328 333.166656,184.666656 328.000000,186.000000 
"/>
<path fill="none" opacity="1.000000" stroke="#000000" stroke-linecap="round" stroke-linejoin="round" stroke-width="3.000000"
	d="
M265.000000,382.000000 
	C268.785522,386.487793 269.832367,392.128601 271.483490,397.505066 
	C272.343262,400.304626 270.508087,402.668243 270.000000,405.250000 
"/>
<path fill="none" opacity="1.000000" stroke="#000000" stroke-linecap="round" stroke-linejoin="round" stroke-width="3.000000"
	d="
M337.000000,284.000000 
	C335.381042,289.043793 335.868042,294.356201 335.028320,299.504608 
	C334.322723,303.830688 334.288300,308.262299 333.000000,312.500000 
"/>
<path fill="none" opacity="1.000000" stroke="#000000" stroke-linecap="round" stroke-linejoin="round" stroke-width="3.000000"
	d="
M298.999969,299.500000 
	C296.713562,305.185242 294.427124,310.870453 291.967072,316.987427 
	C293.686462,317.768219 295.593231,318.634094 297.500000,319.500000 
"/>
<path fill="none" opacity="1.000000" stroke="#000000" stroke-linecap="round" stroke-linejoin="round" stroke-width="3.000000"
	d="
M285.000000,343.000000 
	C286.487671,344.422363 288.055298,345.591583 289.937988,346.614166 
	C296.033569,349.925049 300.692596,354.744202 303.000000,361.500000 
"/>
<path fill="none" opacity="1.000000" stroke="#000000" stroke-linecap="round" stroke-linejoin="round" stroke-width="3.000000"
	d="
M274.000000,347.500000 
	C272.000000,353.500000 270.000000,359.500000 268.000000,365.500000 
"/>
<path fill="none" opacity="1.000000" stroke="#000000" stroke-linecap="round" stroke-linejoin="round" stroke-width="3.000000"
	d="
M332.500000,273.500000 
	C331.833344,279.833344 331.365540,286.195770 330.443665,292.491760 
	C329.535187,298.696198 328.166687,304.833344 327.000031,311.000000 
"/>
<path fill="none" opacity="1.000000" stroke="#000000" stroke-linecap="round" stroke-linejoin="round" stroke-width="3.000000"
	d="
M140.500000,221.999985 
	C137.500000,222.999985 134.500000,223.999985 131.500000,224.999985 
"/>
<path fill="none" opacity="1.000000" stroke="#000000" stroke-linecap="round" stroke-linejoin="round" stroke-width="3.000000"
	d="
M281.000000,354.500000 
	C276.762024,360.133484 280.226685,365.533539 281.500000,371.000000 
"/>
<path fill="none" opacity="1.000000" stroke="#000000" stroke-linecap="round" stroke-linejoin="round" stroke-width="3.000000"
	d="
M319.500000,320.000000 
	C318.333344,326.333344 317.166687,332.666656 316.000000,339.000000 
"/>
<path fill="none" opacity="1.000000" stroke="#000000" stroke-linecap="round" stroke-linejoin="round" stroke-width="3.000000"
	d="
M412.500000,235.000000 
	C412.557068,231.317322 414.624023,230.853134 417.491302,232.021378 
	C420.530060,233.259521 423.500000,234.666672 426.500000,236.000000 
"/>
<path fill="none" opacity="1.000000" stroke="#000000" stroke-linecap="round" stroke-linejoin="round" stroke-width="3.000000"
	d="
M325.500000,322.500000 
	C324.853577,325.504486 325.125366,328.713043 323.500000,331.500000 
"/>
<path fill="none" opacity="1.000000" stroke="#000000" stroke-linecap="round" stroke-linejoin="round" stroke-width="3.000000"
	d="
M347.500000,273.000000 
	C342.028137,273.166901 342.026428,273.166901 342.001068,278.500000 
	C341.993927,279.999969 342.000000,281.500000 342.000000,283.000000 
"/>
<path fill="none" opacity="1.000000" stroke="#000000" stroke-linecap="round" stroke-linejoin="round" stroke-width="3.000000"
	d="
M330.000000,269.500000 
	C331.598785,270.763641 331.780823,273.548828 335.019257,273.160645 
	C336.966278,272.927307 337.119385,275.284668 336.994965,276.999634 
	C336.849792,279.001190 336.666687,281.000000 336.500000,283.000000 
"/>
<path fill="none" opacity="1.000000" stroke="#000000" stroke-linecap="round" stroke-linejoin="round" stroke-width="3.000000"
	d="
M310.000000,293.500000 
	C311.315857,294.711487 312.582794,296.382568 311.917816,297.965485 
	C307.585083,308.279510 306.691467,319.528290 302.982117,329.993652 
	C302.787476,330.542816 302.333344,331.000000 302.000000,331.500000 
"/>
<path fill="none" opacity="1.000000" stroke="#000000" stroke-linecap="round" stroke-linejoin="round" stroke-width="3.000000"
	d="
M333.500000,314.000000 
	C332.567719,317.800049 329.755035,321.518341 333.000000,325.500000 
"/>
<path fill="none" opacity="1.000000" stroke="#000000" stroke-linecap="round" stroke-linejoin="round" stroke-width="3.000000"
	d="
M286.000000,176.000000 
	C280.166656,178.166672 274.333344,180.333328 268.500000,182.500000 
"/>
<path fill="none" opacity="1.000000" stroke="#000000" stroke-linecap="round" stroke-linejoin="round" stroke-width="3.000000"
	d="
M303.000000,332.500000 
	C305.160431,333.678101 307.320892,334.856171 309.786346,336.200592 
	C306.984589,341.774139 307.177338,347.302063 311.000000,352.500000 
"/>
<path fill="none" opacity="1.000000" stroke="#000000" stroke-linecap="round" stroke-linejoin="round" stroke-width="3.000000"
	d="
M324.000000,278.500000 
	C325.687469,279.962128 326.402283,281.914032 325.960846,283.991699 
	C323.487976,295.631470 322.330536,307.532776 319.152313,319.311707 
	C320.793945,319.676483 322.646973,320.088226 324.500000,320.500000 
"/>
<path fill="none" opacity="1.000000" stroke="#000000" stroke-linecap="round" stroke-linejoin="round" stroke-width="3.000000"
	d="
M292.500031,318.000000 
	C292.166687,318.500000 291.768524,318.968750 291.509979,319.504791 
	C288.643127,325.448517 288.510345,325.776581 294.561646,328.355347 
	C297.361053,329.548370 299.706177,331.420959 302.543304,332.175507 
	C302.331482,333.666412 302.222412,334.844574 301.990662,335.998138 
	C300.633972,342.751465 300.624268,342.749512 307.000000,345.500000 
"/>
<path fill="none" opacity="1.000000" stroke="#000000" stroke-linecap="round" stroke-linejoin="round" stroke-width="3.000000"
	d="
M311.000000,189.000000 
	C307.912292,194.830627 301.813080,195.202850 296.513763,196.624054 
	C296.378143,200.169022 298.443939,203.244400 296.169830,206.614594 
	C295.294647,207.911575 296.333313,210.500000 296.499969,212.500000 
"/>
<path fill="none" opacity="1.000000" stroke="#000000" stroke-linecap="round" stroke-linejoin="round" stroke-width="3.000000"
	d="
M301.000000,298.000000 
	C304.152252,301.410400 303.702728,304.831787 302.138092,309.051208 
	C298.525879,318.792480 295.586945,328.783997 293.459808,338.991608 
	C292.892548,341.713745 291.833344,344.333344 291.000031,347.000000 
"/>
<path fill="none" opacity="1.000000" stroke="#000000" stroke-linecap="round" stroke-linejoin="round" stroke-width="3.000000"
	d="
M241.500000,198.500000 
	C238.534439,198.883774 235.730499,199.817032 233.000000,201.000000 
"/>
<path fill="none" opacity="1.000000" stroke="#000000" stroke-linecap="round" stroke-linejoin="round" stroke-width="3.000000"
	d="
M305.500000,323.500000 
	C307.743927,324.012115 309.225220,326.049561 311.992615,325.813019 
	C310.479584,329.421387 309.830139,332.425232 309.500000,335.500000 
"/>
<path fill="none" opacity="1.000000" stroke="#000000" stroke-linecap="round" stroke-linejoin="round" stroke-width="3.000000"
	d="
M300.000000,185.500000 
	C296.921265,190.175842 291.294159,189.818985 286.894440,191.760864 
	C284.814453,192.678879 282.097748,193.488678 279.500000,193.500000 
"/>
<path fill="none" opacity="1.000000" stroke="#000000" stroke-linecap="round" stroke-linejoin="round" stroke-width="3.000000"
	d="
M282.500000,341.500000 
	C284.690002,345.163849 281.680542,348.027771 281.000000,351.250000 
"/>
<path fill="none" opacity="1.000000" stroke="#000000" stroke-linecap="round" stroke-linejoin="round" stroke-width="3.000000"
	d="
M267.500000,183.000000 
	C264.666656,184.000000 261.833344,185.000000 259.000000,186.000000 
"/>
<path fill="none" opacity="1.000000" stroke="#000000" stroke-linecap="round" stroke-linejoin="round" stroke-width="3.000000"
	d="
M218.500000,189.500000 
	C214.981323,189.705460 213.079437,192.964859 210.000000,194.000000 
"/>
<path fill="none" opacity="1.000000" stroke="#000000" stroke-linecap="round" stroke-linejoin="round" stroke-width="3.000000"
	d="
M256.500000,180.500000 
	C250.260437,181.315140 244.867996,184.601105 239.000000,186.500000 
"/>
<path fill="none" opacity="1.000000" stroke="#000000" stroke-linecap="round" stroke-linejoin="round" stroke-width="3.000000"
	d="
M184.000000,239.000000 
	C179.226715,242.016220 173.252747,241.930695 168.500000,245.000000 
"/>
<path fill="none" opacity="1.000000" stroke="#000000" stroke-linecap="round" stroke-linejoin="round" stroke-width="3.000000"
	d="
M149.000000,275.000000 
	C152.280472,276.411224 154.007874,279.733917 157.111694,281.495880 
	C155.557587,282.987030 153.072769,282.984894 152.000000,285.000000 
"/>
<path fill="none" opacity="1.000000" stroke="#000000" stroke-linecap="round" stroke-linejoin="round" stroke-width="3.000000"
	d="
M351.500000,179.000000 
	C352.947540,181.586609 350.734100,184.402039 352.000000,187.000000 
"/>
<path fill="none" opacity="1.000000" stroke="#000000" stroke-linecap="round" stroke-linejoin="round" stroke-width="3.000000"
	d="
M227.500000,185.000000 
	C224.833328,186.500000 222.166672,188.000000 219.500000,189.500000 
"/>
<path fill="none" opacity="1.000000" stroke="#000000" stroke-linecap="round" stroke-linejoin="round" stroke-width="3.000000"
	d="
M164.500000,278.000000 
	C169.000000,282.333344 173.500000,286.666656 178.000000,291.000000 
"/>
<path fill="none" opacity="1.000000" stroke="#000000" stroke-linecap="round" stroke-linejoin="round" stroke-width="3.000000"
	d="
M283.500000,381.500000 
	C282.376068,385.804718 283.199829,390.437866 280.662537,394.599091 
	C279.693176,396.188873 282.205933,398.148804 283.000000,400.000000 
"/>
<path fill="none" opacity="1.000000" stroke="#000000" stroke-linecap="round" stroke-linejoin="round" stroke-width="3.000000"
	d="
M235.000015,176.000000 
	C235.834381,177.666153 236.668747,179.332306 237.418243,180.828995 
	C234.445755,182.219208 231.472870,183.609604 228.500000,185.000000 
"/>
<path fill="none" opacity="1.000000" stroke="#000000" stroke-linecap="round" stroke-linejoin="round" stroke-width="3.000000"
	d="
M238.000000,186.500000 
	C232.333328,189.166656 226.666656,191.833328 221.000000,194.500000 
"/>
<path fill="none" opacity="1.000000" stroke="#000000" stroke-linecap="round" stroke-linejoin="round" stroke-width="3.000000"
	d="
M317.000000,286.500000 
	C320.415710,289.342194 318.809906,292.640137 318.041901,296.009552 
	C315.920837,305.315308 314.010925,314.669037 311.972321,323.993958 
	C311.852783,324.540680 311.333344,325.000000 311.000000,325.500000 
"/>
<path fill="none" opacity="1.000000" stroke="#000000" stroke-linecap="round" stroke-linejoin="round" stroke-width="3.000000"
	d="
M327.000000,204.500000 
	C324.073883,209.659454 318.016357,207.417450 313.785583,210.137695 
	C313.534790,212.647842 313.267365,215.323914 312.999969,218.000000 
"/>
<path fill="none" opacity="1.000000" stroke="#000000" stroke-linecap="round" stroke-linejoin="round" stroke-width="3.000000"
	d="
M321.500000,309.500031 
	C323.700562,310.234344 325.901123,310.968689 328.000305,311.669189 
	C326.625793,314.875275 327.052704,318.350891 324.581512,321.203400 
	C326.765930,321.866486 328.632965,322.433258 330.500000,323.000000 
"/>
<path fill="none" opacity="1.000000" stroke="#000000" stroke-linecap="round" stroke-linejoin="round" stroke-width="3.000000"
	d="
M249.000000,172.500000 
	C247.554169,178.220306 242.113052,178.447113 238.000000,180.500000 
"/>
<path fill="none" opacity="1.000000" stroke="#000000" stroke-linecap="round" stroke-linejoin="round" stroke-width="3.000000"
	d="
M248.000000,184.000000 
	C248.671005,185.664963 249.342010,187.329941 250.012329,188.993195 
	C247.182968,190.548904 244.067566,191.202698 241.000000,192.000000 
"/>
<path fill="none" opacity="1.000000" stroke="#000000" stroke-linecap="round" stroke-linejoin="round" stroke-width="3.000000"
	d="
M307.000000,194.500000 
	C306.833344,197.166672 306.666656,199.833328 306.500000,202.500000 
"/>
<path fill="none" opacity="1.000000" stroke="#000000" stroke-linecap="round" stroke-linejoin="round" stroke-width="3.000000"
	d="
M324.000031,208.500000 
	C323.500031,211.166672 323.000031,213.833344 322.500031,216.500000 
"/>
<path fill="none" opacity="1.000000" stroke="#000000" stroke-linecap="round" stroke-linejoin="round" stroke-width="3.000000"
	d="
M277.000000,180.000000 
	C277.666656,182.000000 278.333313,184.000015 279.083282,186.249985 
	C275.371033,187.427246 271.648224,188.607849 267.916412,189.791321 
	C269.722260,194.335388 269.462494,199.037811 270.500000,203.500000 
"/>
<path fill="none" opacity="1.000000" stroke="#000000" stroke-linecap="round" stroke-linejoin="round" stroke-width="3.000000"
	d="
M286.500000,335.000000 
	C285.583344,337.333344 284.666687,339.666687 283.750000,342.000000 
"/>
<path fill="none" opacity="1.000000" stroke="#000000" stroke-linecap="round" stroke-linejoin="round" stroke-width="3.000000"
	d="
M278.500000,201.999985 
	C275.666656,202.666656 272.833344,203.333328 270.000000,203.999985 
"/>
<path fill="none" opacity="1.000000" stroke="#000000" stroke-linecap="round" stroke-linejoin="round" stroke-width="3.000000"
	d="
M318.000000,198.000000 
	C314.206635,200.904846 315.139465,205.098648 315.000000,209.000000 
"/>
<path fill="none" opacity="1.000000" stroke="#000000" stroke-linecap="round" stroke-linejoin="round" stroke-width="4.000000"
	d="
M346.500000,178.000000 
	C343.480225,181.685028 344.568542,185.883575 345.000000,190.000000 
"/>
<path fill="none" opacity="1.000000" stroke="#000000" stroke-linecap="round" stroke-linejoin="round" stroke-width="3.000000"
	d="
M314.500000,201.000000 
	C311.246490,200.920715 308.396423,202.293808 305.262085,203.224609 
	C306.572235,209.142929 303.297668,214.390701 304.000000,220.000000 
"/>
<path fill="none" opacity="1.000000" stroke="#000000" stroke-linecap="round" stroke-linejoin="round" stroke-width="7.000000"
	d="
M336.000000,257.500000 
	C340.297546,261.121704 340.197052,266.046539 340.000000,271.000000 
"/>
<path fill="none" opacity="1.000000" stroke="#000000" stroke-linecap="round" stroke-linejoin="round" stroke-width="7.000000"
	d="
M349.500000,260.500000 
	C349.441345,254.985031 348.174011,250.052017 343.000000,247.000000 
"/>
<path fill="none" opacity="1.000000" stroke="#000000" stroke-linecap="round" stroke-linejoin="round" stroke-width="3.000000"
	d="
M287.500000,192.500000 
	C287.819763,194.502121 288.139526,196.504257 288.514618,198.852844 
	C285.408112,199.880386 282.204071,200.940186 279.000000,202.000000 
"/>
<path fill="none" opacity="1.000000" stroke="#000000" stroke-linecap="round" stroke-linejoin="round" stroke-width="3.000000"
	d="
M237.500015,182.000000 
	C239.833344,190.000000 242.166687,198.000000 244.500015,206.000000 
"/>
<path fill="none" opacity="1.000000" stroke="#000000" stroke-linecap="round" stroke-linejoin="round" stroke-width="3.000000"
	d="
M267.000000,342.500000 
	C264.067291,347.126923 263.474823,352.689911 261.000000,357.500000 
"/>
<path fill="none" opacity="1.000000" stroke="#000000" stroke-linecap="round" stroke-linejoin="round" stroke-width="3.000000"
	d="
M269.000000,197.000015 
	C264.333344,198.166687 259.712128,199.601822 254.983490,200.402466 
	C251.997406,200.908066 250.535065,202.524338 249.500000,205.000000 
"/>
<path fill="none" opacity="1.000000" stroke="#000000" stroke-linecap="round" stroke-linejoin="round" stroke-width="3.000000"
	d="
M258.000000,186.000000 
	C255.586456,187.092712 253.184586,188.220413 250.500000,188.500000 
"/>
<path fill="none" opacity="1.000000" stroke="#000000" stroke-linecap="round" stroke-linejoin="round" stroke-width="3.000000"
	d="
M276.000000,171.500000 
	C276.500000,174.000000 277.000000,176.500000 277.500000,179.000000 
"/>
<path fill="none" opacity="1.000000" stroke="#000000" stroke-linecap="round" stroke-linejoin="round" stroke-width="3.000000"
	d="
M290.000000,180.500000 
	C287.690735,184.667236 283.356232,184.581436 279.500000,185.500000 
"/>
<path fill="none" opacity="1.000000" stroke="#000000" stroke-linecap="round" stroke-linejoin="round" stroke-width="3.000000"
	d="
M278.500000,187.500000 
	C277.816650,189.732056 277.632233,191.925720 279.277527,194.302719 
	C276.054565,195.163666 272.736237,195.208740 270.000000,197.000000 
"/>
<path fill="none" opacity="1.000000" stroke="#000000" stroke-linecap="round" stroke-linejoin="round" stroke-width="3.000000"
	d="
M300.500000,344.000000 
	C298.682098,346.171814 299.506958,349.224548 298.000000,351.500000 
"/>
<path fill="none" opacity="1.000000" stroke="#000000" stroke-linecap="round" stroke-linejoin="round" stroke-width="3.000000"
	d="
M277.000000,339.000000 
	C276.000000,341.333344 275.000000,343.666656 274.000000,346.000000 
"/>
<path fill="none" opacity="1.000000" stroke="#000000" stroke-linecap="round" stroke-linejoin="round" stroke-width="3.000000"
	d="
M192.000000,263.000000 
	C185.333344,266.333344 178.666672,269.666687 172.000000,273.000000 
"/>
<path fill="none" opacity="1.000000" stroke="#000000" stroke-linecap="round" stroke-linejoin="round" stroke-width="3.000000"
	d="
M194.500000,343.000000 
	C196.550415,345.062744 198.816010,346.824249 201.500000,348.000000 
"/>
<path fill="none" opacity="1.000000" stroke="#000000" stroke-linecap="round" stroke-linejoin="round" stroke-width="3.000000"
	d="
M197.000000,270.000000 
	C192.952301,271.589142 188.816101,273.008636 185.500000,276.000000 
"/>
<path fill="none" opacity="1.000000" stroke="#000000" stroke-linecap="round" stroke-linejoin="round" stroke-width="3.000000"
	d="
M295.500000,221.000000 
	C297.833344,221.000000 300.166656,221.000000 302.500000,221.000000 
"/>
<path fill="none" opacity="1.000000" stroke="#000000" stroke-linecap="round" stroke-linejoin="round" stroke-width="3.000000"
	d="
M258.500000,193.000000 
	C255.629913,193.896729 252.759811,194.793457 249.872787,195.695480 
	C250.663742,197.667831 251.331863,199.333923 252.000000,201.000000 
"/>
<path fill="none" opacity="1.000000" stroke="#000000" stroke-linecap="round" stroke-linejoin="round" stroke-width="3.000000"
	d="
M249.500000,196.500000 
	C247.045685,196.435394 244.776169,197.233215 242.500000,198.000000 
"/>
<path fill="none" opacity="1.000000" stroke="#000000" stroke-linecap="round" stroke-linejoin="round" stroke-width="3.000000"
	d="
M296.000000,197.000000 
	C293.852753,198.368347 291.317780,197.927460 289.000000,198.500000 
"/>
<path fill="none" opacity="1.000000" stroke="#000000" stroke-linecap="round" stroke-linejoin="round" stroke-width="3.000000"
	d="
M177.500000,232.000000 
	C175.669220,234.172638 172.584930,233.420410 170.500000,235.000000 
"/>
<path fill="none" opacity="1.000000" stroke="#000000" stroke-linecap="round" stroke-linejoin="round" stroke-width="3.000000"
	d="
M160.500000,238.000000 
	C168.658524,233.999847 169.456238,234.177109 174.000000,241.000000 
"/>
<path fill="none" opacity="1.000000" stroke="#000000" stroke-linecap="round" stroke-linejoin="round" stroke-width="3.000000"
	d="
M297.500000,189.000000 
	C298.648254,191.333328 297.684601,193.666672 297.500000,196.000000 
"/>
<path fill="none" opacity="1.000000" stroke="#000000" stroke-linecap="round" stroke-linejoin="round" stroke-width="3.000000"
	d="
M295.500000,206.000000 
	C290.197998,205.994202 285.329529,208.676346 280.000000,208.500000 
"/>
<path fill="none" opacity="1.000000" stroke="#000000" stroke-linecap="round" stroke-linejoin="round" stroke-width="3.000000"
	d="
M336.000000,174.500000 
	C336.682983,176.828674 336.040527,179.536041 338.000000,181.500000 
"/>
<path fill="none" opacity="1.000000" stroke="#000000" stroke-linecap="round" stroke-linejoin="round" stroke-width="3.000000"
	d="
M270.000000,211.000000 
	C267.666656,211.166672 265.333344,211.333328 263.000000,211.500000 
"/>
<path fill="none" opacity="1.000000" stroke="#000000" stroke-linecap="round" stroke-linejoin="round" stroke-width="3.000000"
	d="
M304.000000,212.500000 
	C301.281067,211.830292 298.739258,213.994781 296.327911,212.621933 
	C293.501038,215.883636 296.973022,220.558578 293.000000,223.000000 
"/>
<path fill="none" opacity="1.000000" stroke="#000000" stroke-linecap="round" stroke-linejoin="round" stroke-width="3.000000"
	d="
M287.500000,184.000000 
	C288.478088,186.275375 287.801758,188.668930 288.000000,191.000000 
"/>
<path fill="none" opacity="1.000000" stroke="#000000" stroke-linecap="round" stroke-linejoin="round" stroke-width="3.000000"
	d="
M294.500000,214.000000 
	C292.333344,214.166672 290.166656,214.333328 288.000000,214.500000 
"/>
<path fill="none" opacity="1.000000" stroke="#000000" stroke-linecap="round" stroke-linejoin="round" stroke-width="3.000000"
	d="
M261.000000,212.500000 
	C258.833344,212.666672 256.666656,212.833344 254.500000,213.000000 
"/>
<path fill="none" opacity="1.000000" stroke="#000000" stroke-linecap="round" stroke-linejoin="round" stroke-width="3.000000"
	d="
M157.000000,271.500000 
	C158.979294,273.366211 161.741776,274.514496 162.500000,277.500000 
"/>
<path fill="none" opacity="1.000000" stroke="#000000" stroke-linecap="round" stroke-linejoin="round" stroke-width="3.000000"
	d="
M274.000000,325.000000 
	C276.668518,325.608673 277.610168,328.519775 280.290863,329.462830 
	C279.064056,332.365540 277.892670,335.137177 276.470673,338.501801 
	C279.048431,338.177338 280.226532,339.660187 281.500000,341.000000 
"/>
<path fill="none" opacity="1.000000" stroke="#000000" stroke-linecap="round" stroke-linejoin="round" stroke-width="3.000000"
	d="
M181.500000,327.000000 
	C182.833328,328.333344 184.361771,329.524780 185.457092,331.031189 
	C187.399796,333.702972 189.593872,333.223175 192.000000,332.000000 
"/>
<path fill="none" opacity="1.000000" stroke="#000000" stroke-linecap="round" stroke-linejoin="round" stroke-width="3.000000"
	d="
M287.500000,200.500000 
	C287.666656,202.666672 287.833313,204.833328 288.000000,207.000000 
"/>
<path fill="none" opacity="1.000000" stroke="#000000" stroke-linecap="round" stroke-linejoin="round" stroke-width="3.000000"
	d="
M304.500000,203.500015 
	C302.333344,203.833344 300.166656,204.166672 298.000000,204.500015 
"/>
<path fill="none" opacity="1.000000" stroke="#000000" stroke-linecap="round" stroke-linejoin="round" stroke-width="3.000000"
	d="
M277.500000,210.000000 
	C275.333313,210.166519 273.106964,209.557220 271.000000,210.500000 
"/>
<path fill="none" opacity="1.000000" stroke="#000000" stroke-linecap="round" stroke-linejoin="round" stroke-width="3.000000"
	d="
M313.000000,210.500000 
	C310.699188,209.961441 308.734283,211.606125 306.500000,211.500000 
"/>
<path fill="none" opacity="1.000000" stroke="#000000" stroke-linecap="round" stroke-linejoin="round" stroke-width="3.000000"
	d="
M267.500000,190.500000 
	C265.333344,190.833328 263.166656,191.166672 261.000000,191.500000 
"/>
<path fill="none" opacity="1.000000" stroke="#000000" stroke-linecap="round" stroke-linejoin="round" stroke-width="3.000000"
	d="
M177.000000,242.500000 
	C177.883270,245.522263 179.505173,248.052109 181.943146,249.955536 
	C184.317337,248.961182 186.658661,247.980591 189.000000,247.000000 
"/>
<path fill="none" opacity="1.000000" stroke="#000000" stroke-linecap="round" stroke-linejoin="round" stroke-width="3.000000"
	d="
M348.000000,262.000000 
	C345.557800,264.129059 342.641724,262.467133 340.000000,263.000000 
"/>
<path fill="none" opacity="1.000000" stroke="#000000" stroke-linecap="round" stroke-linejoin="round" stroke-width="3.000000"
	d="
M278.000000,361.500000 
	C275.833313,359.666687 273.666656,357.833344 271.500000,356.000000 
"/>
<path fill="none" opacity="1.000000" stroke="#000000" stroke-linecap="round" stroke-linejoin="round" stroke-width="3.000000"
	d="
M134.000000,228.750000 
	C133.428192,226.616608 131.472977,225.785233 130.251831,224.237152 
	C127.044182,225.369202 124.020317,226.073151 121.500000,228.000000 
"/>
<path fill="none" opacity="1.000000" stroke="#000000" stroke-linecap="round" stroke-linejoin="round" stroke-width="3.000000"
	d="
M278.500000,318.000000 
	C281.815704,320.464386 285.199066,322.819458 289.000000,324.500000 
"/>
<path fill="none" opacity="1.000000" stroke="#000000" stroke-linecap="round" stroke-linejoin="round" stroke-width="3.000000"
	d="
M341.500000,305.000000 
	C337.383514,303.790894 333.590790,301.232849 329.000000,302.000000 
"/>
<path fill="none" opacity="1.000000" stroke="#000000" stroke-linecap="round" stroke-linejoin="round" stroke-width="3.000000"
	d="
M165.000015,256.500000 
	C167.000015,258.500000 169.000015,260.500000 171.000015,262.500000 
"/>
<path fill="none" opacity="1.000000" stroke="#000000" stroke-linecap="round" stroke-linejoin="round" stroke-width="3.000000"
	d="
M171.500000,284.000000 
	C173.452682,282.758026 175.405365,281.516083 177.388565,280.254700 
	C181.375427,284.459198 185.187714,288.479614 189.000000,292.500000 
"/>
<path fill="none" opacity="1.000000" stroke="#000000" stroke-linecap="round" stroke-linejoin="round" stroke-width="3.000000"
	d="
M287.000000,314.500000 
	C285.666656,316.500000 284.333313,318.500000 283.000000,320.500000 
"/>
<path fill="none" opacity="1.000000" stroke="#000000" stroke-linecap="round" stroke-linejoin="round" stroke-width="3.000000"
	d="
M287.500000,208.500000 
	C286.363586,210.592072 287.587219,212.865677 287.000000,215.000000 
"/>
<path fill="none" opacity="1.000000" stroke="#000000" stroke-linecap="round" stroke-linejoin="round" stroke-width="3.000000"
	d="
M164.000000,255.999985 
	C162.000000,257.000000 160.000000,258.000000 158.000000,259.000000 
"/>
<path fill="none" opacity="1.000000" stroke="#000000" stroke-linecap="round" stroke-linejoin="round" stroke-width="3.000000"
	d="
M257.000000,343.000000 
	C259.745270,343.772339 260.955566,346.386627 263.000000,348.000000 
"/>
<path fill="none" opacity="1.000000" stroke="#000000" stroke-linecap="round" stroke-linejoin="round" stroke-width="3.000000"
	d="
M294.000000,338.500000 
	C296.000000,339.500000 298.000000,340.500000 300.000000,341.500000 
"/>
<path fill="none" opacity="1.000000" stroke="#000000" stroke-linecap="round" stroke-linejoin="round" stroke-width="3.000000"
	d="
M179.000000,292.000000 
	C182.666672,295.500000 186.333328,299.000000 190.000000,302.500000 
"/>
<path fill="none" opacity="1.000000" stroke="#000000" stroke-linecap="round" stroke-linejoin="round" stroke-width="3.000000"
	d="
M278.000000,195.500000 
	C278.993866,202.333328 279.225311,209.166672 278.000000,216.000000 
"/>
<path fill="none" opacity="1.000000" stroke="#000000" stroke-linecap="round" stroke-linejoin="round" stroke-width="3.000000"
	d="
M140.000000,231.000000 
	C135.024475,226.611298 131.362564,230.432709 127.500000,233.000000 
"/>
<path fill="none" opacity="1.000000" stroke="#000000" stroke-linecap="round" stroke-linejoin="round" stroke-width="3.000000"
	d="
M165.500000,289.000000 
	C166.617844,291.453705 169.170517,292.329102 171.000000,294.000000 
"/>
<path fill="none" opacity="1.000000" stroke="#000000" stroke-linecap="round" stroke-linejoin="round" stroke-width="3.000000"
	d="
M270.500000,355.000000 
	C268.500000,353.333344 266.500000,351.666656 264.500000,350.000000 
"/>
<path fill="none" opacity="1.000000" stroke="#000000" stroke-linecap="round" stroke-linejoin="round" stroke-width="3.000000"
	d="
M283.000000,323.000000 
	C282.000000,325.000000 281.000000,327.000000 280.000000,329.000000 
"/>
<path fill="none" opacity="1.000000" stroke="#000000" stroke-linecap="round" stroke-linejoin="round" stroke-width="2.000000"
	d="
M202.500000,276.000000 
	C200.562347,277.124695 198.151993,277.303986 196.500000,279.000000 
"/>
<path fill="none" opacity="1.000000" stroke="#000000" stroke-linecap="round" stroke-linejoin="round" stroke-width="3.000000"
	d="
M173.500000,321.000000 
	C175.500000,322.666687 177.500000,324.333344 179.500000,326.000000 
"/>
<path fill="none" opacity="1.000000" stroke="#000000" stroke-linecap="round" stroke-linejoin="round" stroke-width="3.000000"
	d="
M269.500000,205.000000 
	C270.150543,208.973572 271.408691,212.896500 270.500000,217.000000 
"/>
<path fill="none" opacity="1.000000" stroke="#000000" stroke-linecap="round" stroke-linejoin="round" stroke-width="2.000000"
	d="
M165.000000,245.500000 
	C163.166672,246.333344 161.333328,247.166672 159.500000,248.000000 
"/>
<path fill="none" opacity="1.000000" stroke="#000000" stroke-linecap="round" stroke-linejoin="round" stroke-width="3.000000"
	d="
M167.000000,300.000000 
	C168.833328,301.666656 170.666672,303.333344 172.500000,305.000000 
"/>
<path fill="none" opacity="1.000000" stroke="#000000" stroke-linecap="round" stroke-linejoin="round" stroke-width="3.000000"
	d="
M310.000000,336.500000 
	C314.988647,337.227722 316.945099,341.165985 319.000000,345.000000 
"/>
<path fill="none" opacity="1.000000" stroke="#000000" stroke-linecap="round" stroke-linejoin="round" stroke-width="3.000000"
	d="
M266.500000,177.000000 
	C268.743652,180.706177 266.763855,185.292252 269.000000,189.000000 
"/>
<path fill="none" opacity="1.000000" stroke="#000000" stroke-linecap="round" stroke-linejoin="round" stroke-width="3.000000"
	d="
M262.000000,335.500000 
	C263.000214,337.666382 264.971436,338.619049 267.000000,339.500000 
"/>
<path fill="none" opacity="1.000000" stroke="#000000" stroke-linecap="round" stroke-linejoin="round" stroke-width="3.000000"
	d="
M289.500000,327.000000 
	C288.333344,328.833344 287.166656,330.666656 286.000000,332.500000 
"/>
<path fill="none" opacity="1.000000" stroke="#000000" stroke-linecap="round" stroke-linejoin="round" stroke-width="3.000000"
	d="
M318.500000,318.500000 
	C309.178009,315.422607 300.039673,311.914124 291.500000,307.000000 
"/>
<path fill="none" opacity="1.000000" stroke="#000000" stroke-linecap="round" stroke-linejoin="round" stroke-width="3.000000"
	d="
M174.500000,306.000000 
	C176.333328,307.666656 178.166672,309.333344 180.000000,311.000000 
"/>
<path fill="none" opacity="1.000000" stroke="#000000" stroke-linecap="round" stroke-linejoin="round" stroke-width="3.000000"
	d="
M309.500000,306.000000 
	C313.166656,307.000000 316.833344,308.000000 320.500000,309.000000 
"/>
<path fill="none" opacity="1.000000" stroke="#000000" stroke-linecap="round" stroke-linejoin="round" stroke-width="3.000000"
	d="
M185.000015,266.500000 
	C186.333344,268.333313 187.666672,270.166656 189.000015,272.000000 
"/>
<path fill="none" opacity="1.000000" stroke="#000000" stroke-linecap="round" stroke-linejoin="round" stroke-width="3.000000"
	d="
M180.000000,259.500000 
	C180.378387,262.027832 182.454941,263.320648 184.000000,265.000000 
"/>
<path fill="none" opacity="1.000000" stroke="#000000" stroke-linecap="round" stroke-linejoin="round" stroke-width="2.000000"
	d="
M170.500000,253.000000 
	C168.606659,254.213303 166.845901,255.691818 164.500000,256.000000 
"/>
<path fill="none" opacity="1.000000" stroke="#000000" stroke-linecap="round" stroke-linejoin="round" stroke-width="3.000000"
	d="
M183.500000,277.000000 
	C181.775162,278.083557 179.518997,278.408081 178.500000,280.500000 
"/>
<path fill="none" opacity="1.000000" stroke="#000000" stroke-linecap="round" stroke-linejoin="round" stroke-width="3.000000"
	d="
M182.500000,250.500000 
	C182.696854,253.159866 185.856567,253.664917 186.500000,256.000000 
"/>
<path fill="none" opacity="1.000000" stroke="#000000" stroke-linecap="round" stroke-linejoin="round" stroke-width="3.000000"
	d="
M172.000000,263.500000 
	C173.666672,265.333344 175.333344,267.166656 177.000000,269.000000 
"/>
<path fill="none" opacity="1.000000" stroke="#000000" stroke-linecap="round" stroke-linejoin="round" stroke-width="3.000000"
	d="
M180.500000,249.499985 
	C178.666656,250.333313 176.833328,251.166656 175.000000,251.999985 
"/>
<path fill="none" opacity="1.000000" stroke="#000000" stroke-linecap="round" stroke-linejoin="round" stroke-width="8.000000"
	d="
M240.000000,210.000000 
	C241.333328,208.833328 242.532516,207.441208 244.029892,206.550232 
	C246.588135,205.028030 249.961121,204.414886 251.828308,206.643829 
	C253.804749,209.003159 254.760040,212.500000 252.000000,215.500000 
"/>
<path fill="none" opacity="1.000000" stroke="#000000" stroke-linecap="round" stroke-linejoin="round" stroke-width="3.000000"
	d="
M183.999985,309.000000 
	C183.261520,309.949158 182.523041,310.898285 181.784576,311.847443 
	C182.140961,311.613708 182.497360,311.379974 182.853745,311.146271 
	C184.235840,313.097504 185.617920,315.048737 187.000015,316.999969 
"/>
<path fill="none" opacity="1.000000" stroke="#000000" stroke-linecap="round" stroke-linejoin="round" stroke-width="3.000000"
	d="
M169.000000,274.000000 
	C165.933701,277.492157 160.390259,277.578247 158.526932,280.684875 
	C160.235825,283.097504 161.617920,285.048737 163.000015,287.000000 
"/>
<path fill="none" opacity="1.000000" stroke="#000000" stroke-linecap="round" stroke-linejoin="round" stroke-width="3.000000"
	d="
M261.000000,206.500000 
	C262.239258,211.912598 263.302826,217.302521 259.000000,222.000000 
"/>
<path fill="none" opacity="1.000000" stroke="#000000" stroke-linecap="round" stroke-linejoin="round" stroke-width="3.000000"
	d="
M280.500000,330.000000 
	C284.500000,332.500000 288.500000,335.000000 292.500000,337.500000 
"/>
<path fill="none" opacity="1.000000" stroke="#000000" stroke-linecap="round" stroke-linejoin="round" stroke-width="2.000000"
	d="
M299.000000,320.500000 
	C300.666656,321.333344 302.333344,322.166656 304.000000,323.000000 
"/>
<path fill="none" opacity="1.000000" stroke="#000000" stroke-linecap="round" stroke-linejoin="round" stroke-width="3.000000"
	d="
M226.000000,180.500000 
	C227.675766,183.655151 228.981125,186.939941 229.500000,190.500000 
"/>
<path fill="none" opacity="1.000000" stroke="#000000" stroke-linecap="round" stroke-linejoin="round" stroke-width="3.000000"
	d="
M330.500000,292.000000 
	C334.353851,294.283905 339.308502,292.636353 343.000000,295.500000 
"/>
<path fill="none" opacity="1.000000" stroke="#000000" stroke-linecap="round" stroke-linejoin="round" stroke-width="3.000000"
	d="
M325.000000,333.500000 
	C323.166809,331.624786 321.317749,329.775299 318.500000,329.500000 
"/>
<path fill="none" opacity="1.000000" stroke="#000000" stroke-linecap="round" stroke-linejoin="round" stroke-width="3.000000"
	d="
M328.000000,301.500000 
	C322.736847,300.540558 317.562317,299.237671 312.500000,297.500000 
"/>
<path fill="none" opacity="1.000000" stroke="#000000" stroke-linecap="round" stroke-linejoin="round" stroke-width="2.000000"
	d="
M272.500000,334.000000 
	C273.833313,335.000000 275.166656,336.000000 276.500000,337.000000 
"/>
<path fill="none" opacity="1.000000" stroke="#000000" stroke-linecap="round" stroke-linejoin="round" stroke-width="3.000000"
	d="
M141.000000,123.000000 
	C142.824570,122.618492 145.126572,124.862801 146.500000,122.000000 
"/>
<path fill="none" opacity="1.000000" stroke="#000000" stroke-linecap="round" stroke-linejoin="round" stroke-width="3.000000"
	d="
M348.500000,189.500000 
	C345.239929,189.558411 343.151398,191.439194 341.500000,194.000000 
"/>
</svg>